<svg width="93.653320" height="23.593750" viewBox="0 0 93.6533 23.5938" fill="none" xmlns="http://www.w3.org/2000/svg" xmlns:xlink="http://www.w3.org/1999/xlink">
	<desc>
			Created with Pixso.
	</desc>
	<defs/>
	<path id="24/7 CUSTOMER SERVICE" d="M11.1719 19.1797L0 19.1797L0 15.3047L9.71875 0L15.875 0L15.875 15.2422L18.7656 15.2422L18.7656 19.1797L15.875 19.1797L15.875 23.2734L11.1719 23.2734L11.1719 19.1797ZM40.5201 15.5156C40.5357 20.2188 37.0122 23.5938 31.8247 23.5938C27.0122 23.5938 23.4966 20.7188 23.4107 16.6953L28.1841 16.6953C28.2935 18.5 29.8716 19.7266 31.8247 19.7266C34.1372 19.7266 35.7857 18.0547 35.7857 15.6406C35.7857 13.1953 34.0982 11.5 31.7622 11.4922C30.3872 11.4922 28.9966 12.0938 28.2857 13.0547L23.9107 12.2734L25.0122 0L39.2388 0L39.2388 4.02344L29.0669 4.02344L28.4654 9.85156L28.5982 9.85156C29.4185 8.70312 31.1841 7.85156 33.2232 7.85156C37.4185 7.85156 40.5357 11.0547 40.5201 15.5156ZM72.3187 15.5156C72.3343 20.2188 68.8109 23.5938 63.6234 23.5938C58.8109 23.5938 55.2953 20.7188 55.2093 16.6953L59.9828 16.6953C60.0921 18.5 61.6703 19.7266 63.6234 19.7266C65.9359 19.7266 67.5843 18.0547 67.5843 15.6406C67.5843 13.1953 65.8968 11.5 63.5609 11.4922C62.1859 11.4922 60.7953 12.0938 60.0843 13.0547L55.7093 12.2734L56.8109 0L71.0374 0L71.0374 4.02344L60.8656 4.02344L60.264 9.85156L60.3968 9.85156C61.2171 8.70312 62.9828 7.85156 65.0218 7.85156C69.2171 7.85156 72.3343 11.0547 72.3187 15.5156ZM81.919 23.2734L77.0753 23.2734L77.0753 0L81.919 0L81.919 12.4453L82.1768 12.4453L87.7706 5.82031L93.3253 5.82031L86.8487 13.375L93.6534 23.2734L87.9893 23.2734L83.2237 16.2422L81.919 17.7266L81.919 23.2734ZM4.96094 15.2422L11.2656 15.2422L11.2656 5.36719L11.0859 5.36719L4.96094 15.0547L4.96094 15.2422ZM50.1118 20.8438C50.0962 22.3516 48.8384 23.5703 47.3775 23.5703C45.8775 23.5703 44.6431 22.3516 44.6509 20.8438C44.6431 19.3516 45.8775 18.1406 47.3775 18.1406C48.8384 18.1406 50.0962 19.3516 50.1118 20.8438Z" fill="#000000" fill-opacity="1.000000" fill-rule="evenodd"/>
</svg>
