<svg width="88.696289" height="24.101562" viewBox="0 0 88.6963 24.1016" fill="none" xmlns="http://www.w3.org/2000/svg" xmlns:xlink="http://www.w3.org/1999/xlink">
	<desc>
			Created with Pixso.
	</desc>
	<defs/>
	<path id="FREE AND FAST DELIVERY" d="M35.7203 11.9766C35.7125 19.6484 32.1813 24.1016 26.3219 24.1016C20.4625 24.0938 16.9078 19.625 16.9313 11.9766C16.9391 4.35156 20.486 0 26.3219 0C32.1578 0 35.736 4.36719 35.7203 11.9766ZM5.75781 0.320312L10.3828 0.320312L10.3828 23.5938L5.46875 23.5938L5.46875 4.99219L5.32812 4.99219L0 8.33594L0 3.96875L5.75781 0.320312ZM67.3613 15.8359C67.3769 20.5391 63.8535 23.9141 58.666 23.9141C53.8535 23.9141 50.3379 21.0391 50.2519 17.0156L55.0254 17.0156C55.1347 18.8203 56.7129 20.0469 58.666 20.0469C60.9785 20.0469 62.6269 18.375 62.6269 15.9609C62.6269 13.5156 60.9394 11.8203 58.6035 11.8125C57.2285 11.8125 55.8379 12.4141 55.1269 13.375L50.7519 12.5938L51.8535 0.320312L66.08 0.320312L66.08 4.34375L55.9082 4.34375L55.3066 10.1719L55.4394 10.1719C56.2597 9.02344 58.0254 8.17188 60.0644 8.17188C64.2597 8.17188 67.3769 11.375 67.3613 15.8359ZM76.9616 23.5938L72.1179 23.5938L72.1179 0.320312L76.9616 0.320312L76.9616 12.7656L77.2194 12.7656L82.8132 6.14062L88.3679 6.14062L81.8913 13.6953L88.696 23.5938L83.0319 23.5938L78.2663 16.5625L76.9616 18.0469L76.9616 23.5938ZM21.9391 11.9766C21.9313 17.3438 23.6578 20.0234 26.3219 20.0234C28.986 20.0234 30.7125 17.3438 30.6969 11.9766C30.6969 6.69531 28.9703 4.03906 26.3219 4.03906C23.6657 4.03906 21.9469 6.69531 21.9391 11.9766ZM45.1545 21.1641C45.1388 22.6719 43.881 23.8906 42.4201 23.8906C40.9201 23.8906 39.6857 22.6719 39.6935 21.1641C39.6857 19.6719 40.9201 18.4609 42.4201 18.4609C43.881 18.4609 45.1388 19.6719 45.1545 21.1641Z" fill="#000000" fill-opacity="1.000000" fill-rule="evenodd"/>
</svg>
