<svg width="24.000000" height="24.000000" viewBox="0 0 24 24" fill="none" xmlns="http://www.w3.org/2000/svg" xmlns:xlink="http://www.w3.org/1999/xlink">
	<desc>
			Created with Pixso.
	</desc>
	<defs>
		<clipPath id="clip7_5071">
			<rect id="Icon-Linkedin" width="24.000000" height="24.000000" fill="white" fill-opacity="0"/>
		</clipPath>
	</defs>
	<g clip-path="url(#clip7_5071)">
		<path id="Vector" d="M11.5 9.05005C12.417 8.11304 13.6111 7.5 15 7.5C16.4587 7.5 17.8577 8.07947 18.8892 9.11096C19.9207 10.1423 20.5 11.5413 20.5 13L20.5 20.5L18.5 20.5L18.5 13C18.5 12.0718 18.1313 11.1815 17.4749 10.5251C16.8186 9.86877 15.9282 9.5 15 9.5C14.0718 9.5 13.1814 9.86877 12.5251 10.5251C11.8687 11.1815 11.5 12.0718 11.5 13L11.5 20.5L9.5 20.5L9.5 8L11.5 8L11.5 9.05005ZM4.5 6C4.10229 6 3.7207 5.84192 3.43945 5.56067C3.15796 5.2793 3 4.89783 3 4.5C3 4.10217 3.15796 3.7207 3.43945 3.43933C3.7207 3.15808 4.10229 3 4.5 3C4.89771 3 5.2793 3.15808 5.56055 3.43933C5.84204 3.7207 6 4.10217 6 4.5C6 4.89783 5.84204 5.2793 5.56055 5.56067C5.2793 5.84192 4.89771 6 4.5 6ZM3.5 8L5.5 8L5.5 20.5L3.5 20.5L3.5 8Z" fill="#FFFFFF" fill-opacity="1.000000" fill-rule="nonzero"/>
	</g>
</svg>
