<svg width="24.000000" height="24.000000" viewBox="0 0 24 24" fill="none" xmlns="http://www.w3.org/2000/svg" xmlns:xlink="http://www.w3.org/1999/xlink">
	<desc>
			Created with Pixso.
	</desc>
	<defs>
		<clipPath id="clip246_4788">
			<rect id="icon-instagram" width="24.000000" height="24.000000" fill="white" fill-opacity="0"/>
		</clipPath>
	</defs>
	<g clip-path="url(#clip246_4788)">
		<path id="Vector" d="M7 3C5.93945 3 4.92188 3.42139 4.17188 4.17163C3.42188 4.92175 3 5.93909 3 7L3 17C3 18.0609 3.42188 19.0782 4.17188 19.8284C4.92188 20.5786 5.93945 21 7 21L17 21C18.0605 21 19.0781 20.5786 19.8281 19.8284C20.5781 19.0782 21 18.0609 21 17L21 7C21 5.93909 20.5781 4.92175 19.8281 4.17163C19.0781 3.42139 18.0605 3 17 3L7 3Z" stroke="#000000" stroke-opacity="1.000000" stroke-width="1.500000" stroke-linejoin="round"/>
		<path id="Vector" d="M14.8281 14.8284C15.5781 14.0782 16 13.0609 16 12C16 10.9391 15.5781 9.92175 14.8281 9.17163C14.0781 8.42139 13.0605 8 12 8C10.9395 8 9.92188 8.42139 9.17188 9.17163C8.42188 9.92175 8 10.9391 8 12C8 13.0609 8.42188 14.0782 9.17188 14.8284C9.92188 15.5786 10.9395 16 12 16C13.0605 16 14.0781 15.5786 14.8281 14.8284Z" stroke="#000000" stroke-opacity="1.000000" stroke-width="1.500000" stroke-linejoin="round"/>
		<path id="Vector" d="M17.5 7.5C17.7656 7.5 18.0195 7.39465 18.207 7.20715C18.3945 7.01953 18.5 6.76526 18.5 6.5C18.5 6.23474 18.3945 5.98047 18.207 5.79285C18.0195 5.60535 17.7656 5.5 17.5 5.5C17.2344 5.5 16.9805 5.60535 16.793 5.79285C16.6055 5.98047 16.5 6.23474 16.5 6.5C16.5 6.76526 16.6055 7.01953 16.793 7.20715C16.9805 7.39465 17.2344 7.5 17.5 7.5Z" fill="#000000" fill-opacity="1.000000" fill-rule="nonzero"/>
	</g>
</svg>
