<svg width="24.000000" height="24.000000" viewBox="0 0 24 24" fill="none" xmlns="http://www.w3.org/2000/svg" xmlns:xlink="http://www.w3.org/1999/xlink">
	<desc>
			Created with Pixso.
	</desc>
	<defs>
		<clipPath id="clip246_4789">
			<rect id="Icon-Linkedin" width="24.000000" height="24.000000" fill="white" fill-opacity="0"/>
		</clipPath>
	</defs>
	<g clip-path="url(#clip246_4789)">
		<path id="Vector" d="M11.5 9.05005C12.417 8.11304 13.6113 7.5 15 7.5C16.459 7.5 17.8574 8.07947 18.8887 9.11096C19.9209 10.1423 20.5 11.5413 20.5 13L20.5 20.5L18.5 20.5L18.5 13C18.5 12.0718 18.1309 11.1815 17.4746 10.5251C16.8184 9.86877 15.9287 9.5 15 9.5C14.0713 9.5 13.1816 9.86877 12.5254 10.5251C11.8691 11.1815 11.5 12.0718 11.5 13L11.5 20.5L9.5 20.5L9.5 8L11.5 8L11.5 9.05005ZM4.5 6C4.10254 6 3.7207 5.84192 3.43945 5.56067C3.1582 5.2793 3 4.89783 3 4.5C3 4.10217 3.1582 3.7207 3.43945 3.43933C3.7207 3.15808 4.10254 3 4.5 3C4.89746 3 5.2793 3.15808 5.56055 3.43933C5.8418 3.7207 6 4.10217 6 4.5C6 4.89783 5.8418 5.2793 5.56055 5.56067C5.2793 5.84192 4.89746 6 4.5 6ZM3.5 8L5.5 8L5.5 20.5L3.5 20.5L3.5 8Z" fill="#000000" fill-opacity="1.000000" fill-rule="nonzero"/>
	</g>
</svg>
