<svg width="24.000000" height="24.000000" viewBox="0 0 24 24" fill="none" xmlns="http://www.w3.org/2000/svg" xmlns:xlink="http://www.w3.org/1999/xlink">
	<desc>
			Created with Pixso.
	</desc>
	<defs>
		<clipPath id="clip7_5064">
			<rect id="Icon-Twitter" width="24.000000" height="24.000000" fill="white" fill-opacity="0"/>
		</clipPath>
	</defs>
	<rect id="Icon-Twitter" width="24.000000" height="24.000000" fill="#FFFFFF" fill-opacity="0"/>
	<g clip-path="url(#clip7_5064)">
		<path id="Vector" d="M15.905 6.00134C15.145 6.00122 14.4153 6.29944 13.8728 6.83191C13.3306 7.36426 13.0188 8.08838 13.0049 8.84827L12.9771 10.4233C12.9753 10.5078 12.9558 10.5911 12.9197 10.6676C12.8838 10.7441 12.8318 10.8121 12.7676 10.8672C12.7034 10.9222 12.6284 10.963 12.5471 10.9871C12.4661 11.011 12.3809 11.0176 12.2971 11.0063L10.7361 10.7943C8.68188 10.5143 6.71411 9.56824 4.82593 7.99524C4.22803 11.3053 5.396 13.5983 8.20898 15.3673L9.95605 16.4653C10.0391 16.5175 10.1079 16.5891 10.1567 16.6742C10.2058 16.7592 10.2332 16.8547 10.2363 16.9528C10.2397 17.0508 10.219 17.1481 10.176 17.2362C10.1331 17.3243 10.0693 17.4005 9.98999 17.4583L8.39795 18.6213C9.34497 18.6803 10.2439 18.6383 10.99 18.4902C15.708 17.5483 18.845 13.9983 18.845 8.14233C18.845 7.66431 17.833 6.00134 15.905 6.00134ZM11.0049 8.81128C11.0225 7.84729 11.324 6.90991 11.8716 6.11646C12.4192 5.32312 13.1887 4.70886 14.084 4.35071C14.979 3.99255 15.96 3.90637 16.9038 4.10303C17.8477 4.29968 18.7124 4.77039 19.3899 5.4563C20.1011 5.45129 20.7061 5.63123 22.0591 4.81128C21.7241 6.45129 21.5591 7.16333 20.845 8.14233C20.845 15.7843 16.1479 19.5002 11.3821 20.4513C8.11401 21.1033 3.36206 20.0322 2 18.6102C2.69409 18.5563 5.51392 18.2533 7.14404 17.0603C5.76489 16.1512 0.275879 12.9213 3.88306 4.2373C5.57593 6.21423 7.29297 7.5603 9.03296 8.27429C10.1909 8.74927 10.4751 8.73926 11.0061 8.81226L11.0049 8.81128Z" fill="#FFFFFF" fill-opacity="1.000000" fill-rule="nonzero"/>
		<path id="Vector" d="M19.3899 5.4563C18.7124 4.77039 17.8477 4.29968 16.9038 4.10303C15.96 3.90637 14.979 3.99255 14.084 4.35071C13.1887 4.70886 12.4192 5.32312 11.8716 6.11646C11.3618 6.85498 11.0654 7.71814 11.0127 8.61133C11.0088 8.67786 11.0061 8.74451 11.0049 8.81128L11.0061 8.81226C10.9358 8.80261 10.8696 8.79443 10.8054 8.78638C10.3845 8.7334 10.0376 8.6864 9.03296 8.27429C7.34326 7.58081 5.67505 6.29138 4.02954 4.40674C3.98071 4.35071 3.93188 4.29431 3.88306 4.2373C3.854 4.30688 3.82568 4.37622 3.7981 4.44519C0.499023 12.6373 5.36377 15.8995 6.96436 16.943C6.979 16.9525 6.99341 16.9619 7.00757 16.9711C7.05664 17.0031 7.10205 17.0327 7.14404 17.0603C7.08643 17.1024 7.02734 17.1434 6.96704 17.1833C5.48535 18.1633 3.198 18.4921 2.2627 18.5865C2.15674 18.5973 2.06812 18.605 2 18.6102C2.05933 18.6722 2.12524 18.7335 2.19702 18.7941C3.77344 20.1223 8.25635 21.0748 11.3821 20.4513C16.1479 19.5002 20.845 15.7843 20.845 8.14233C21.5195 7.21753 21.7041 6.53101 22.0049 5.07544C22.0225 4.99011 22.0405 4.9021 22.0591 4.81128C21.9792 4.85962 21.9019 4.90454 21.8271 4.94629C20.8311 5.50098 20.2659 5.48169 19.7168 5.46289C19.6084 5.45923 19.5005 5.45557 19.3899 5.4563ZM21.7739 5.20178Q21.2092 5.49597 20.7224 5.59998Q20.4597 5.65613 20.1787 5.66687Q20.0134 5.67322 19.71 5.66284Q19.4978 5.65552 19.3914 5.65625L19.3071 5.65686L19.2478 5.5968Q19.0039 5.3501 18.7297 5.1438Q18.4556 4.93762 18.1511 4.77185Q17.8464 4.60608 17.5244 4.48779Q17.2024 4.36951 16.863 4.29883Q16.5234 4.22803 16.1809 4.20789Q15.8384 4.18774 15.4932 4.21802Q15.1477 4.24841 14.814 4.32788Q14.4802 4.40747 14.1582 4.53638Q13.8364 4.66516 13.5398 4.83765Q13.2434 5.01025 12.9722 5.22668Q12.7012 5.44299 12.4673 5.69373Q12.2332 5.9447 12.0361 6.2301Q11.8391 6.5155 11.6875 6.82336Q11.5359 7.1311 11.4299 7.46118Q11.3237 7.79138 11.2673 8.13Q11.218 8.42712 11.2073 8.73059L11.5684 9.09143L10.9788 9.01038Q10.9153 9.00171 10.7961 8.98669Q10.3765 8.93408 10.0974 8.86108Q9.65405 8.74524 8.95703 8.45935Q6.41309 7.41541 3.94556 4.6145Q2.86523 7.33643 2.87524 9.63489Q2.88281 11.3875 3.52441 12.8646Q3.61743 13.0793 3.72412 13.2882Q4.37109 14.5558 5.50122 15.5872Q5.91211 15.9623 6.39722 16.3143Q6.67456 16.5155 7.1167 16.8035Q7.21167 16.8654 7.25415 16.8933L7.49438 17.0518L7.26221 17.2217Q6.18335 18.0111 4.26636 18.4572Q3.60547 18.611 2.89526 18.7112Q2.68066 18.7415 2.48071 18.7644Q2.93115 19.0984 3.65869 19.4053Q4.68604 19.8385 6.0166 20.1127Q7.37964 20.3936 8.7356 20.4387Q10.1807 20.4871 11.3428 20.2551Q13.0107 19.9224 14.4739 19.1837Q14.626 19.1068 14.7759 19.0256Q16.0679 18.3258 17.0979 17.3496Q17.4387 17.0267 17.751 16.6735Q18.0022 16.3889 18.2322 16.0879Q19.2532 14.7507 19.8484 13.0884Q20.645 10.8633 20.645 8.14233L20.645 8.07715L20.6833 8.02441Q20.9399 7.67249 21.1118 7.34631Q21.2793 7.02808 21.4048 6.66016Q21.52 6.32275 21.6338 5.84009Q21.6892 5.60535 21.7739 5.20178ZM14.2 6.3114Q13.9502 6.47571 13.7329 6.68909Q13.5154 6.90259 13.3464 7.14929Q13.1775 7.39587 13.0571 7.67566Q12.9365 7.95557 12.8735 8.24768Q12.8105 8.53992 12.8049 8.8446L12.7771 10.4197Q12.7761 10.4604 12.7676 10.4995Q12.7578 10.542 12.7388 10.5823Q12.7207 10.621 12.6953 10.6542Q12.6699 10.6875 12.6375 10.7153Q12.605 10.7432 12.5684 10.7632Q12.5315 10.7831 12.4905 10.7953Q12.4495 10.8074 12.4077 10.8105Q12.366 10.8138 12.3237 10.8081L10.7629 10.5961Q7.77051 10.1882 4.9541 7.84167L4.69019 7.62183L4.62915 7.95972Q4.17554 10.4713 5.05737 12.3444Q5.91187 14.1589 8.10254 15.5366L9.84961 16.6346Q9.89185 16.6611 9.92529 16.6959Q9.95874 16.7307 9.9834 16.7738Q10.0083 16.817 10.0215 16.8634Q10.0349 16.9099 10.0366 16.9596Q10.0383 17.0093 10.0281 17.0565Q10.0181 17.1038 9.99634 17.1486Q9.97461 17.1932 9.9436 17.2303Q9.9126 17.2673 9.87231 17.2966L7.83276 18.7865L8.3855 18.8209Q9.88159 18.9141 11.0288 18.6865Q12.8433 18.3242 14.3083 17.4724Q15.2622 16.9177 16.0349 16.1747Q16.4675 15.7584 16.8435 15.2831Q17.916 13.9274 18.4719 12.1571Q19.0449 10.3326 19.0449 8.14233Q19.0449 7.88989 18.8313 7.5083Q18.603 7.10107 18.2368 6.74841Q17.9099 6.43384 17.5266 6.21985Q17.3962 6.14709 17.2593 6.08594Q17.0339 5.98547 16.7991 5.92041Q16.3684 5.80127 15.905 5.80127Q15.6006 5.80127 15.3074 5.85876Q15.0139 5.91638 14.7317 6.03174Q14.4497 6.14697 14.2 6.3114ZM15.905 6.00134C15.145 6.00122 14.4153 6.29944 13.8728 6.83191C13.3306 7.36426 13.0188 8.08838 13.0049 8.84827L12.9771 10.4233C12.9753 10.5078 12.9558 10.5911 12.9197 10.6676C12.8838 10.7441 12.8318 10.8121 12.7676 10.8672C12.7034 10.9222 12.6284 10.963 12.5471 10.9871C12.4661 11.011 12.3809 11.0176 12.2971 11.0063L10.7361 10.7943C8.74634 10.5231 6.83716 9.62683 5.00342 8.14111C4.94434 8.09314 4.88501 8.04456 4.82593 7.99524C4.81226 8.07166 4.79932 8.14758 4.78735 8.2229C4.28271 11.4109 5.46094 13.6392 8.20898 15.3673L9.95605 16.4653C10.0391 16.5175 10.1079 16.5891 10.1567 16.6742C10.2058 16.7592 10.2332 16.8547 10.2363 16.9528C10.2397 17.0508 10.219 17.1481 10.176 17.2362C10.1331 17.3243 10.0693 17.4005 9.98999 17.4583L8.65332 18.4347L8.39795 18.6213C8.50439 18.6279 8.61011 18.6333 8.71509 18.6373C9.54492 18.6696 10.3279 18.6217 10.99 18.4902C15.708 17.5483 18.845 13.9983 18.845 8.14233C18.845 7.66431 17.833 6.00134 15.905 6.00134Z" fill="#000000" fill-opacity="1.000000" fill-rule="evenodd"/>
	</g>
</svg>
