<svg width="40.000000" height="40.000000" viewBox="0 0 40 40" fill="none" xmlns="http://www.w3.org/2000/svg" xmlns:xlink="http://www.w3.org/1999/xlink">
	<desc>
			Created with Pixso.
	</desc>
	<defs>
		<clipPath id="clip210_4438">
			<rect id="icons-phone" rx="20.000000" width="40.000000" height="40.000000" fill="white" fill-opacity="0"/>
		</clipPath>
	</defs>
	<rect id="icons-phone" rx="20.000000" width="40.000000" height="40.000000" fill="#DB4444" fill-opacity="1.000000"/>
	<g clip-path="url(#clip210_4438)">
		<path id="Vector" d="M15.1709 10.335C14.7812 9.88501 14.0664 9.88699 13.6133 10.341L10.8311 13.128C10.0029 13.957 9.7666 15.188 10.2451 16.175C13.1064 22.1 17.8857 26.8851 23.8066 29.755C24.792 30.234 26.0225 29.997 26.8506 29.168L29.6582 26.355C30.1133 25.9 30.1143 25.181 29.6602 24.791L25.7402 21.426C25.3301 21.074 24.6934 21.12 24.2822 21.532L22.918 22.898C22.8486 22.9712 22.7568 23.0194 22.6562 23.0353C22.5566 23.0512 22.4541 23.0339 22.3652 22.986C20.1357 21.7021 18.2861 19.8502 17.0049 17.619C16.957 17.5298 16.9395 17.4272 16.9561 17.3271C16.9717 17.2271 17.0195 17.135 17.0928 17.065L18.4531 15.704C18.8652 15.29 18.9102 14.65 18.5547 14.239L18.5547 14.24L15.1709 10.335Z" stroke="#FFFFFF" stroke-opacity="1.000000" stroke-width="1.500000" stroke-linejoin="round"/>
	</g>
</svg>
