<svg width="24.000000" height="24.000000" viewBox="0 0 24 24" fill="none" xmlns="http://www.w3.org/2000/svg" xmlns:xlink="http://www.w3.org/1999/xlink">
	<desc>
			Created with Pixso.
	</desc>
	<defs>
		<clipPath id="clip7_6382">
			<rect id="Component 2" width="24.000000" height="24.000000" fill="white" fill-opacity="0"/>
		</clipPath>
	</defs>
	<rect id="Component 2" width="24.000000" height="24.000000" fill="#FFFFFF" fill-opacity="0"/>
	<g clip-path="url(#clip7_6382)">
		<path id="Vector" d="M20 20L16.2224 16.2156M16.2192 16.2193C14.877 17.5617 13.0564 18.3158 11.158 18.3158C9.25952 18.3158 7.43896 17.5617 6.09644 16.2193C4.75415 14.8769 4 13.0563 4 11.1579C4 9.25951 4.75415 7.43887 6.09644 6.0965C7.43896 4.75414 9.25952 4 11.158 4C13.0564 4 14.877 4.75414 16.2192 6.0965C17.5618 7.43887 18.3157 9.25951 18.3157 11.1579C18.3157 13.0563 17.5618 14.8769 16.2192 16.2193Z" stroke="#000000" stroke-opacity="1.000000" stroke-width="1.500000" stroke-linecap="round"/>
	</g>
</svg>
