<svg width="61.616211" height="23.914062" viewBox="0 0 61.6162 23.9141" fill="none" xmlns="http://www.w3.org/2000/svg" xmlns:xlink="http://www.w3.org/1999/xlink">
	<desc>
			Created with Pixso.
	</desc>
	<defs/>
	<path id="MONEY BACK GUARANTEE" d="M17.7891 17.0625C17.7969 21.0391 14.0625 23.9141 8.83594 23.9141C3.71875 23.9141 0.0859375 21.0859 0 17.0156L4.96094 17.0156C5.04688 18.7188 6.67188 19.8516 8.84375 19.8516C11.0938 19.8516 12.6875 18.5859 12.6719 16.7266C12.6875 14.8516 11.0391 13.5391 8.39844 13.5391L6.22656 13.5391L6.22656 9.92188L8.39844 9.92188C10.6406 9.92188 12.1953 8.6875 12.1875 6.85156C12.1953 5.10156 10.8672 3.89844 8.875 3.89844C6.86719 3.89844 5.24219 5.04688 5.1875 6.82031L0.46875 6.82031C0.539062 2.79688 4.125 0 8.89844 0C13.7188 0 16.9375 2.89062 16.9219 6.5625C16.9375 9.17188 15.1406 11.0156 12.5391 11.4766L12.5391 11.6641C15.9609 12.0938 17.7969 14.1641 17.7891 17.0625ZM40.1713 17.0625C40.1791 21.0391 36.4448 23.9141 31.2182 23.9141C26.101 23.9141 22.4682 21.0859 22.3823 17.0156L27.3432 17.0156C27.4291 18.7188 29.0541 19.8516 31.226 19.8516C33.476 19.8516 35.0698 18.5859 35.0541 16.7266C35.0698 14.8516 33.4213 13.5391 30.7807 13.5391L28.6088 13.5391L28.6088 9.92188L30.7807 9.92188C33.0229 9.92188 34.5776 8.6875 34.5698 6.85156C34.5776 5.10156 33.2495 3.89844 31.2573 3.89844C29.2495 3.89844 27.6245 5.04688 27.5698 6.82031L22.851 6.82031C22.9213 2.79688 26.5073 0 31.2807 0C36.101 0 39.3198 2.89062 39.3041 6.5625C39.3198 9.17188 37.5229 11.0156 34.9213 11.4766L34.9213 11.6641C38.3432 12.0938 40.1791 14.1641 40.1713 17.0625ZM49.8817 23.5938L45.038 23.5938L45.038 0.320312L49.8817 0.320312L49.8817 12.7656L50.1395 12.7656L55.7333 6.14062L61.288 6.14062L54.8114 13.6953L61.6161 23.5938L55.952 23.5938L51.1864 16.5625L49.8817 18.0469L49.8817 23.5938Z" fill="#FFFFFF" fill-opacity="1.000000" fill-rule="evenodd"/>
</svg>
