<svg width="60.195312" height="23.914062" viewBox="0 0 60.1953 23.9141" fill="none" xmlns="http://www.w3.org/2000/svg" xmlns:xlink="http://www.w3.org/1999/xlink">
	<desc>
			Created with Pixso.
	</desc>
	<defs/>
	<path id="MONEY BACK GUARANTEE" d="M16.8203 23.5938L0.226562 23.5938L0.226562 20.0469L8.51562 12.375C10.625 10.3438 11.7656 9.07031 11.7656 7.21875C11.7656 5.17188 10.2422 3.89844 8.19531 3.89844C6.07031 3.89844 4.66406 5.26562 4.67188 7.49219L0 7.49219C-0.0078125 2.92188 3.34375 0 8.22656 0C13.2188 0 16.5156 2.85156 16.5156 6.89062C16.5156 9.53906 15.2266 11.7188 10.4453 16.0859L7.04688 19.4141L7.04688 19.5703L16.8203 19.5703L16.8203 23.5938ZM38.861 15.8359C38.8766 20.5391 35.3532 23.9141 30.1657 23.9141C25.3532 23.9141 21.8375 21.0391 21.7516 17.0156L26.525 17.0156C26.6344 18.8203 28.2125 20.0469 30.1657 20.0469C32.4782 20.0469 34.1266 18.375 34.1266 15.9609C34.1266 13.5156 32.4391 11.8203 30.1032 11.8125C28.7282 11.8125 27.3375 12.4141 26.6266 13.375L22.2516 12.5938L23.3532 0.320312L37.5797 0.320312L37.5797 4.34375L27.4078 4.34375L26.8063 10.1719L26.9391 10.1719C27.7594 9.02344 29.525 8.17188 31.5641 8.17188C35.7594 8.17188 38.8766 11.375 38.861 15.8359ZM48.4613 23.5938L43.6175 23.5938L43.6175 0.320312L48.4613 0.320312L48.4613 12.7656L48.7191 12.7656L54.3128 6.14062L59.8675 6.14062L53.391 13.6953L60.1957 23.5938L54.5316 23.5938L49.766 16.5625L48.4613 18.0469L48.4613 23.5938Z" fill="#000000" fill-opacity="1.000000" fill-rule="evenodd"/>
</svg>
