<svg width="80.004883" height="80.000000" viewBox="0 0 80.0049 80" fill="none" xmlns="http://www.w3.org/2000/svg" xmlns:xlink="http://www.w3.org/1999/xlink">
	<desc>
			Created with Pixso.
	</desc>
	<defs>
		<clipPath id="clip21_1866">
			<rect id="Icon-Sale" width="40.000000" height="40.000000" transform="translate(20.000000 20.000000)" fill="white" fill-opacity="0"/>
		</clipPath>
	</defs>
	<rect id="Services" width="80.000000" height="80.000000" fill="#FFFFFF" fill-opacity="0"/>
	<g opacity="0.300000">
		<path id="Ellipse 6" d="M77.9619 27.4255C75.1123 18.801 69.3291 11.0946 61.0039 5.95813C53.2705 1.19104 43.8867 -0.994873 34.209 0.43103C25.2197 1.74036 16.627 6.09753 10.1289 13.411C4.08496 20.1917 0.302734 29.0533 0.0263672 38.8323C-0.245117 47.9116 2.55371 57.1311 8.62793 64.7999C14.2559 71.9296 22.3262 77.1931 31.9082 79.1635C40.8027 81.0073 50.3682 79.8521 58.9756 75.2019C66.9736 70.8973 73.5586 63.8638 77.1631 54.769C80.5234 46.3301 81.0469 36.7094 77.9619 27.4255ZM35.7891 11.2205C42.3252 10.2595 49.2217 11.5048 55.2764 15.2406C60.8984 18.712 65.3809 24.0988 67.6113 30.8553C69.6924 37.1255 69.6641 44.1332 67.0293 50.7429C64.5938 56.8839 60.0664 62.2336 53.7998 65.6036C47.9873 68.7422 41.0811 69.9307 34.1143 68.4843C27.6436 67.1516 21.5889 63.6228 17.1816 58.0366C13.0811 52.8566 10.7119 46.2616 10.9268 39.1495C11.1152 32.5458 13.5391 25.9705 18.2754 20.6604C22.6641 15.7229 28.748 12.2439 35.7891 11.2205Z" fill="#FFFFFF" fill-opacity="1.000000" fill-rule="evenodd"/>
	</g>
	<circle id="Ellipse 5" cx="40.000000" cy="40.000000" r="29.000000" fill="#FFFFFF" fill-opacity="1.000000"/>
	<g clip-path="url(#clip21_1866)">
		<path id="Vector" d="M40 57.2727C30.4609 57.2727 22.7275 49.5394 22.7275 40C22.7275 30.4606 30.4609 22.7273 40 22.7273C49.54 22.7273 57.2734 30.4606 57.2734 40C57.2734 49.5394 49.54 57.2727 40 57.2727Z" stroke="#000000" stroke-opacity="1.000000" stroke-width="2.000000" stroke-linejoin="round"/>
		<path id="Vector" d="M45.0918 34.547C44.7617 33.9758 44.2832 33.505 43.707 33.1848C43.1309 32.8646 42.4775 32.7072 41.8184 32.7294L38.1826 32.7294C37.2178 32.7294 36.293 33.1123 35.6113 33.7941C34.9287 34.4758 34.5459 35.4005 34.5459 36.3647C34.5459 37.3289 34.9287 38.2535 35.6113 38.9353C36.293 39.6171 37.2178 40 38.1826 40L41.8184 40C42.7832 40 43.708 40.3831 44.3896 41.0648C45.0723 41.7466 45.4551 42.6713 45.4551 43.6354C45.4551 44.5995 45.0723 45.5242 44.3896 46.2059C43.708 46.8877 42.7832 47.2708 41.8184 47.2708L38.1826 47.2708C37.5234 47.2928 36.8701 47.1355 36.2939 46.8153C35.7178 46.4951 35.2393 46.0242 34.9092 45.453" stroke="#000000" stroke-opacity="1.000000" stroke-width="2.750000" stroke-linejoin="round" stroke-linecap="round"/>
		<path id="Vector" d="M40 28.1818L40 32.1212M40 47.8788L40 51.8181" stroke="#000000" stroke-opacity="1.000000" stroke-width="2.750000" stroke-linejoin="round"/>
	</g>
</svg>
