<svg width="80.004883" height="80.000000" viewBox="0 0 80.0049 80" fill="none" xmlns="http://www.w3.org/2000/svg" xmlns:xlink="http://www.w3.org/1999/xlink">
	<desc>
			Created with Pixso.
	</desc>
	<defs>
		<clipPath id="clip21_1957">
			<rect id="Icon-Shopping bag" width="40.000000" height="40.000000" transform="translate(20.000000 20.000000)" fill="white" fill-opacity="0"/>
		</clipPath>
	</defs>
	<rect id="Services" width="80.000000" height="80.000000" fill="#FFFFFF" fill-opacity="0"/>
	<g opacity="0.300000">
		<path id="Ellipse 6" d="M77.9619 27.4255C75.1123 18.801 69.3291 11.0946 61.0039 5.95813C53.2705 1.19104 43.8867 -0.994873 34.209 0.43103C25.2197 1.74036 16.627 6.09753 10.1289 13.411C4.08496 20.1917 0.302734 29.0533 0.0263672 38.8323C-0.245117 47.9116 2.55371 57.1311 8.62793 64.7999C14.2559 71.9296 22.3262 77.1931 31.9082 79.1635C40.8027 81.0073 50.3682 79.8521 58.9756 75.2019C66.9736 70.8973 73.5586 63.8638 77.1631 54.769C80.5234 46.3301 81.0469 36.7094 77.9619 27.4255ZM35.7891 11.2205C42.3252 10.2595 49.2217 11.5048 55.2764 15.2406C60.8984 18.712 65.3809 24.0988 67.6113 30.8553C69.6924 37.1255 69.6641 44.1332 67.0293 50.7429C64.5938 56.8839 60.0664 62.2336 53.7998 65.6036C47.9873 68.7422 41.0811 69.9307 34.1143 68.4843C27.6436 67.1516 21.5889 63.6228 17.1816 58.0366C13.0811 52.8566 10.7119 46.2616 10.9268 39.1495C11.1152 32.5458 13.5391 25.9705 18.2754 20.6604C22.6641 15.7229 28.748 12.2439 35.7891 11.2205Z" fill="#2F2E30" fill-opacity="1.000000" fill-rule="evenodd"/>
	</g>
	<circle id="Ellipse 5" cx="40.000000" cy="40.000000" r="29.000000" fill="#000000" fill-opacity="1.000000"/>
	<g clip-path="url(#clip21_1957)">
		<path id="Vector" d="M31.667 31.6667L31.667 28.3334C31.667 27.3682 31.9463 26.4236 32.4717 25.6136C32.9961 24.8038 33.7451 24.1632 34.626 23.7692C35.5068 23.3751 36.4834 23.2445 37.4365 23.3932C38.3906 23.5417 39.2812 23.9633 40 24.6067C40.7197 23.9633 41.6104 23.5417 42.5635 23.3932C43.5176 23.2445 44.4941 23.3751 45.375 23.7692C46.2559 24.1632 47.0039 24.8038 47.5293 25.6136C48.0547 26.4236 48.334 27.3682 48.334 28.3334L48.334 31.6667L50.834 31.6667C51.4971 31.6667 52.1328 31.9301 52.6016 32.3989C53.0703 32.8678 53.334 33.5037 53.334 34.1667L53.334 50.8417C53.334 52.3866 52.7197 53.8682 51.6279 54.9606C50.5352 56.053 49.0537 56.6667 47.5088 56.6667L33.334 56.6667C31.5654 56.6667 29.8701 55.9644 28.6191 54.7141C27.3691 53.4639 26.667 51.7682 26.667 50L26.667 34.1667C26.667 33.5037 26.9307 32.8678 27.3994 32.3989C27.8682 31.9301 28.5039 31.6667 29.167 31.6667L31.667 31.6667ZM42.7256 54.1667C42.0459 53.1914 41.6816 52.0306 41.6836 50.8417L41.6836 34.1667L29.167 34.1667L29.167 50C29.167 50.5472 29.2744 51.089 29.4844 51.5946C29.6934 52.1001 30 52.5594 30.3877 52.9463C30.7744 53.3333 31.2334 53.6401 31.7393 53.8496C32.2451 54.059 32.7861 54.1667 33.334 54.1667L42.7256 54.1667ZM39.167 31.6667L39.167 28.3334C39.167 27.6703 38.9033 27.0344 38.4346 26.5657C37.9658 26.0968 37.3301 25.8334 36.667 25.8334C36.0039 25.8334 35.3682 26.0968 34.8994 26.5657C34.4307 27.0344 34.167 27.6703 34.167 28.3334L34.167 31.6667L39.167 31.6667ZM41.667 31.6667L45.834 31.6667L45.834 28.3334C45.834 27.8187 45.6748 27.3167 45.3789 26.8956C45.083 26.4746 44.6641 26.1552 44.1807 25.9808C43.6963 25.8066 43.1699 25.786 42.6738 25.9219C42.1777 26.0577 41.7354 26.3435 41.4072 26.7401C41.5752 27.2401 41.667 27.7767 41.667 28.3334L41.667 31.6667ZM44.1836 50.8417C44.1836 51.7235 44.5342 52.5693 45.1572 53.1929C45.7812 53.8164 46.627 54.1667 47.5088 54.1667C48.3906 54.1667 49.2363 53.8164 49.8594 53.1929C50.4834 52.5693 50.834 51.7235 50.834 50.8417L50.834 34.1667L44.1836 34.1667L44.1836 50.8417Z" fill="#FFFFFF" fill-opacity="1.000000" fill-rule="nonzero"/>
	</g>
</svg>
