<svg width="80.004883" height="80.000000" viewBox="0 0 80.0049 80" fill="none" xmlns="http://www.w3.org/2000/svg" xmlns:xlink="http://www.w3.org/1999/xlink">
	<desc>
			Created with Pixso.
	</desc>
	<defs>
		<clipPath id="clip21_1877">
			<rect id="Icon-Moneybag" width="40.000000" height="40.000000" transform="translate(20.000000 20.000000)" fill="white" fill-opacity="0"/>
		</clipPath>
	</defs>
	<rect id="Services" width="80.000000" height="80.000000" fill="#FFFFFF" fill-opacity="0"/>
	<g opacity="0.300000">
		<path id="Ellipse 6" d="M77.9619 27.4255C75.1123 18.801 69.3291 11.0946 61.0039 5.95813C53.2705 1.19104 43.8867 -0.994873 34.209 0.43103C25.2197 1.74036 16.627 6.09753 10.1289 13.411C4.08496 20.1917 0.302734 29.0533 0.0263672 38.8323C-0.245117 47.9116 2.55371 57.1311 8.62793 64.7999C14.2559 71.9296 22.3262 77.1931 31.9082 79.1635C40.8027 81.0073 50.3682 79.8521 58.9756 75.2019C66.9736 70.8973 73.5586 63.8638 77.1631 54.769C80.5234 46.3301 81.0469 36.7094 77.9619 27.4255ZM35.7891 11.2205C42.3252 10.2595 49.2217 11.5048 55.2764 15.2406C60.8984 18.712 65.3809 24.0988 67.6113 30.8553C69.6924 37.1255 69.6641 44.1332 67.0293 50.7429C64.5938 56.8839 60.0664 62.2336 53.7998 65.6036C47.9873 68.7422 41.0811 69.9307 34.1143 68.4843C27.6436 67.1516 21.5889 63.6228 17.1816 58.0366C13.0811 52.8566 10.7119 46.2616 10.9268 39.1495C11.1152 32.5458 13.5391 25.9705 18.2754 20.6604C22.6641 15.7229 28.748 12.2439 35.7891 11.2205Z" fill="#2F2E30" fill-opacity="1.000000" fill-rule="evenodd"/>
	</g>
	<circle id="Ellipse 5" cx="40.000000" cy="40.000000" r="29.000000" fill="#000000" fill-opacity="1.000000"/>
	<rect id="Icon-Moneybag" width="40.000000" height="40.000000" transform="translate(20.000000 20.000000)" fill="#FFFFFF" fill-opacity="0"/>
	<g clip-path="url(#clip21_1877)">
		<path id="Vector" d="M44.4258 40.6187C44.1699 39.8954 43.6963 39.2693 43.0693 38.8264C42.4434 38.3834 41.6953 38.1456 40.9277 38.1456L40.9277 37.2184L39.0732 37.2184L39.0732 38.1456C38.0898 38.1456 37.1465 38.5364 36.4502 39.2321C35.7549 39.9276 35.3643 40.871 35.3643 41.8547C35.3643 42.8384 35.7549 43.7819 36.4502 44.4774C37.1465 45.173 38.0898 45.5637 39.0732 45.5637L39.0732 49.2728C38.2666 49.2728 37.5791 48.7582 37.3232 48.0367C37.2852 47.9187 37.2246 47.8094 37.1436 47.7156C37.0625 47.6216 36.9639 47.5449 36.8525 47.4899C36.7412 47.4348 36.6201 47.4026 36.4971 47.3951C36.373 47.3877 36.249 47.4052 36.1318 47.4464C36.0146 47.4878 35.9072 47.552 35.8164 47.6356C35.7246 47.7191 35.6504 47.8202 35.5986 47.9329C35.5469 48.0454 35.5176 48.1674 35.5137 48.2913C35.5098 48.4152 35.5312 48.5386 35.5752 48.6543C35.8311 49.3776 36.3047 50.0037 36.9316 50.4467C37.5576 50.8895 38.3066 51.1273 39.0732 51.1273L39.0732 52.0546L40.9277 52.0546L40.9277 51.1273C41.9111 51.1273 42.8545 50.7366 43.5508 50.041C44.2461 49.3453 44.6367 48.402 44.6367 47.4182C44.6367 46.4346 44.2461 45.4912 43.5508 44.7955C42.8545 44.1 41.9111 43.7092 40.9277 43.7092L40.9277 40.0001C41.3115 40.0001 41.6855 40.1189 41.999 40.3402C42.3115 40.5616 42.5488 40.8746 42.6768 41.2362C42.7588 41.4681 42.9297 41.658 43.1514 41.764C43.2607 41.8167 43.3799 41.8469 43.502 41.8534C43.623 41.8599 43.7451 41.8424 43.8594 41.8019C43.9746 41.7612 44.0801 41.6985 44.1709 41.6171C44.2617 41.5358 44.335 41.4373 44.3877 41.3274C44.4404 41.2175 44.4707 41.0984 44.4775 40.9768C44.4834 40.8552 44.4658 40.7335 44.4258 40.6187ZM39.0732 40.0001C38.5811 40.0001 38.1094 40.1956 37.7617 40.5433C37.4141 40.8911 37.2188 41.3628 37.2188 41.8547C37.2188 42.3466 37.4141 42.8182 37.7617 43.166C38.1094 43.5138 38.5811 43.7092 39.0732 43.7092L39.0732 40.0001ZM40.9277 49.2728C41.4199 49.2728 41.8916 49.0774 42.2393 48.7296C42.5869 48.3818 42.7822 47.9102 42.7822 47.4182C42.7822 46.9264 42.5869 46.4547 42.2393 46.1069C41.8916 45.7592 41.4199 45.5637 40.9277 45.5637L40.9277 49.2728Z" fill="#FAFAFA" fill-opacity="1.000000" fill-rule="evenodd"/>
		<path id="Vector" d="M43.0693 38.8264C42.4434 38.3834 41.6953 38.1456 40.9277 38.1456L40.9277 37.2184L39.0732 37.2184L39.0732 38.1456C38.0898 38.1456 37.1465 38.5364 36.4502 39.2321C35.7549 39.9276 35.3643 40.871 35.3643 41.8547C35.3643 42.8384 35.7549 43.7819 36.4502 44.4774C37.1465 45.173 38.0898 45.5637 39.0732 45.5637L39.0732 49.2728C38.2666 49.2728 37.5791 48.7582 37.3232 48.0367C37.2852 47.9187 37.2246 47.8094 37.1436 47.7156C37.0625 47.6216 36.9639 47.5449 36.8525 47.4899C36.7412 47.4348 36.6201 47.4026 36.4971 47.3951C36.373 47.3877 36.249 47.4052 36.1318 47.4464C36.0146 47.4878 35.9072 47.552 35.8164 47.6356C35.7246 47.7191 35.6504 47.8202 35.5986 47.9329C35.5469 48.0454 35.5176 48.1674 35.5137 48.2913C35.5098 48.4152 35.5312 48.5386 35.5752 48.6543C35.8311 49.3776 36.3047 50.0037 36.9316 50.4467C37.5576 50.8895 38.3066 51.1273 39.0732 51.1273L39.0732 52.0546L40.9277 52.0546L40.9277 51.1273C41.9111 51.1273 42.8545 50.7366 43.5508 50.041C44.2461 49.3453 44.6367 48.402 44.6367 47.4182C44.6367 46.4346 44.2461 45.4912 43.5508 44.7955C42.8545 44.1 41.9111 43.7092 40.9277 43.7092L40.9277 40.0001C41.3115 40.0001 41.6855 40.1189 41.999 40.3402C42.3115 40.5616 42.5488 40.8746 42.6768 41.2362C42.7588 41.4681 42.9297 41.658 43.1514 41.764C43.2607 41.8167 43.3799 41.8469 43.502 41.8534C43.623 41.8599 43.7451 41.8424 43.8594 41.8019C43.9746 41.7612 44.0801 41.6985 44.1709 41.6171C44.2617 41.5358 44.335 41.4373 44.3877 41.3274C44.4404 41.2175 44.4707 41.0984 44.4775 40.9768C44.4834 40.8552 44.4658 40.7335 44.4258 40.6187C44.1699 39.8954 43.6963 39.2693 43.0693 38.8264ZM37.7617 40.5433C37.4141 40.8911 37.2188 41.3628 37.2188 41.8547C37.2188 42.3466 37.4141 42.8182 37.7617 43.166C38.1094 43.5138 38.5811 43.7092 39.0732 43.7092L39.0732 40.0001C38.5811 40.0001 38.1094 40.1956 37.7617 40.5433ZM42.2393 48.7296C42.5869 48.3818 42.7822 47.9102 42.7822 47.4182C42.7822 46.9264 42.5869 46.4547 42.2393 46.1069C41.8916 45.7592 41.4199 45.5637 40.9277 45.5637L40.9277 49.2728C41.4199 49.2728 41.8916 49.0774 42.2393 48.7296Z" stroke="#FAFAFA" stroke-opacity="1.000000" stroke-width="1.000000"/>
		<path id="Vector" d="M29.9424 25.7397C32.2178 24.6262 35.9512 23.3094 40.0361 23.3094C44.0361 23.3094 47.6719 24.5714 49.9346 25.6703L50.0625 25.7324C50.7451 26.0699 51.2959 26.3889 51.6836 26.6476L48.2588 31.6548C56.1553 39.7275 62.2549 56.6881 40.0361 56.6881C17.8184 56.6881 23.7539 40.0354 31.7188 31.6548L28.3154 26.6476C28.5781 26.4761 28.9111 26.2767 29.3076 26.0653C29.5049 25.9596 29.7158 25.8511 29.9424 25.7407L29.9424 25.7397ZM46.0566 31.588L48.7988 27.5795C46.249 27.7631 43.2148 28.3621 40.2939 29.2078C38.208 29.8104 35.8896 29.7186 33.7432 29.3228C33.2021 29.2224 32.665 29.103 32.1328 28.9648L33.9131 31.5862C37.7285 32.9446 42.2402 32.9446 46.0566 31.588ZM32.8418 33.1663C37.3066 34.891 42.6729 34.891 47.1377 33.1644C49.001 35.129 50.5596 37.3616 51.7627 39.7878C53.0166 42.3452 53.6982 44.9016 53.5869 47.1049C53.4795 49.2311 52.6436 51.0476 50.7334 52.3977C48.7422 53.8043 45.3945 54.8336 40.0352 54.8336C34.6709 54.8336 31.3066 53.8219 29.2979 52.431C27.374 51.0977 26.5293 49.3062 26.4092 47.2087C26.2842 45.0297 26.9521 42.4862 28.2012 39.9111C29.3926 37.4558 31.0547 35.0922 32.8418 33.1663ZM31.7754 26.9406C32.5176 27.1613 33.292 27.3533 34.0791 27.4988C36.0723 27.866 38.0713 27.9198 39.7773 27.4255C41.7656 26.8463 43.7881 26.3907 45.833 26.0615C44.127 25.5479 42.1309 25.1639 40.0352 25.1639C36.8408 25.1639 33.8613 26.0551 31.7754 26.9406Z" fill="#FAFAFA" fill-opacity="1.000000" fill-rule="evenodd"/>
		<path id="Vector" d="M40.0361 23.3094C44.0361 23.3094 47.6719 24.5714 49.9346 25.6703L50.0625 25.7324C50.7451 26.0699 51.2959 26.3889 51.6836 26.6476L48.2588 31.6548C56.1553 39.7275 62.2549 56.6881 40.0361 56.6881C17.8184 56.6881 23.7539 40.0354 31.7188 31.6548L28.3154 26.6476C28.5781 26.4761 28.9111 26.2767 29.3076 26.0653C29.5049 25.9596 29.7158 25.8511 29.9424 25.7407L29.9424 25.7397C32.2178 24.6262 35.9512 23.3094 40.0361 23.3094ZM48.7988 27.5795C46.249 27.7631 43.2148 28.3621 40.2939 29.2078C38.208 29.8104 35.8896 29.7186 33.7432 29.3228C33.2021 29.2224 32.665 29.103 32.1328 28.9648L33.9131 31.5862C37.7285 32.9446 42.2402 32.9446 46.0566 31.588L48.7988 27.5795ZM47.1377 33.1644C49.001 35.129 50.5596 37.3616 51.7627 39.7878C53.0166 42.3452 53.6982 44.9016 53.5869 47.1049C53.4795 49.2311 52.6436 51.0476 50.7334 52.3977C48.7422 53.8043 45.3945 54.8336 40.0352 54.8336C34.6709 54.8336 31.3066 53.8219 29.2979 52.431C27.374 51.0977 26.5293 49.3062 26.4092 47.2087C26.2842 45.0297 26.9521 42.4862 28.2012 39.9111C29.3926 37.4558 31.0547 35.0922 32.8418 33.1663C37.3066 34.891 42.6729 34.891 47.1377 33.1644ZM34.0791 27.4988C36.0723 27.866 38.0713 27.9198 39.7773 27.4255C41.7656 26.8463 43.7881 26.3907 45.833 26.0615C44.127 25.5479 42.1309 25.1639 40.0352 25.1639C36.8408 25.1639 33.8613 26.0551 31.7754 26.9406C32.5176 27.1613 33.292 27.3533 34.0791 27.4988Z" stroke="#FAFAFA" stroke-opacity="1.000000" stroke-width="1.000000"/>
	</g>
</svg>
