<svg width="80.004883" height="80.000000" viewBox="0 0 80.0049 80" fill="none" xmlns="http://www.w3.org/2000/svg" xmlns:xlink="http://www.w3.org/1999/xlink">
	<desc>
			Created with Pixso.
	</desc>
	<defs/>
	<rect id="Services" width="80.000000" height="80.000000" fill="#FFFFFF" fill-opacity="0"/>
	<g opacity="0.300000">
		<path id="Ellipse 6" d="M77.9619 27.4255C75.1123 18.801 69.3291 11.0947 61.0039 5.95825C53.2705 1.19116 43.8867 -0.994873 34.209 0.430908C25.2197 1.74023 16.627 6.09766 10.1289 13.4109C4.08496 20.1917 0.302734 29.0532 0.0263672 38.8323C-0.245117 47.9116 2.55371 57.1311 8.62793 64.8C14.2559 71.9294 22.3262 77.1931 31.9082 79.1636C40.8027 81.0073 50.3682 79.8521 58.9756 75.2019C66.9736 70.8972 73.5586 63.8638 77.1631 54.769C80.5234 46.3301 81.0469 36.7092 77.9619 27.4255ZM35.7891 11.2205C42.3252 10.2595 49.2217 11.5046 55.2764 15.2407C60.8984 18.7122 65.3809 24.0989 67.6113 30.8555C69.6924 37.1255 69.6641 44.1333 67.0293 50.7429C64.5938 56.884 60.0664 62.2336 53.7998 65.6038C47.9873 68.7422 41.0811 69.9307 34.1143 68.4841C27.6436 67.1516 21.5889 63.6228 17.1816 58.0366C13.0811 52.8564 10.7119 46.2617 10.9268 39.1497C11.1152 32.5457 13.5391 25.9705 18.2754 20.6604C22.6641 15.7229 28.748 12.2439 35.7891 11.2205Z" fill="#2F2E30" fill-opacity="1.000000" fill-rule="evenodd"/>
	</g>
	<circle id="Ellipse 5" cx="40.000000" cy="40.000000" r="29.000000" fill="#000000" fill-opacity="1.000000"/>
	<rect id="Icon-secure" width="40.000000" height="40.000000" transform="translate(20.000000 20.000000)" fill="#FFFFFF" fill-opacity="0"/>
	<path id="Vector" d="M40 57.9333C38.1836 57.9333 36.3838 57.3999 34.9668 56.3499L27.8008 51C25.9004 49.5833 24.417 46.6165 24.417 44.2666L24.417 31.8665C24.417 29.2998 26.3008 26.5667 28.7168 25.6665L37.0332 22.5498C38.6836 21.9333 41.2832 21.9333 42.9336 22.5498L51.25 25.6665C53.667 26.5667 55.5508 29.2998 55.5508 31.8665L55.5508 44.25C55.5508 46.6165 54.0674 49.5667 52.167 50.9832L45 56.3333C43.6172 57.3999 41.8174 57.9333 40 57.9333ZM37.917 24.8999L29.6006 28.0166C28.1836 28.5498 26.9336 30.3499 26.9336 31.8833L26.9336 44.2666C26.9336 45.8499 28.0508 48.0667 29.3008 49L36.4668 54.3499C38.3838 55.7832 41.6172 55.7832 43.5508 54.3499L50.7168 49C51.9834 48.0498 53.084 45.8499 53.084 44.2666L53.084 31.8665C53.084 30.3499 51.834 28.5498 50.417 28L42.1006 24.8833C40.9668 24.4832 39.0332 24.4832 37.917 24.8999Z" fill="#FAFAFA" fill-opacity="1.000000" fill-rule="nonzero"/>
	<path id="Vector" d="M34.9668 56.3499L27.8008 51C25.9004 49.5833 24.417 46.6165 24.417 44.2666L24.417 31.8665C24.417 29.2998 26.3008 26.5667 28.7168 25.6665L37.0332 22.5498C38.6836 21.9333 41.2832 21.9333 42.9336 22.5498L51.25 25.6665C53.667 26.5667 55.5508 29.2998 55.5508 31.8665L55.5508 44.25C55.5508 46.6165 54.0674 49.5667 52.167 50.9832L45 56.3333C43.6172 57.3999 41.8174 57.9333 40 57.9333C38.1836 57.9333 36.3838 57.3999 34.9668 56.3499ZM29.6006 28.0166C28.1836 28.5498 26.9336 30.3499 26.9336 31.8833L26.9336 44.2666C26.9336 45.8499 28.0508 48.0667 29.3008 49L36.4668 54.3499C38.3838 55.7832 41.6172 55.7832 43.5508 54.3499L50.7168 49C51.9834 48.0498 53.084 45.8499 53.084 44.2666L53.084 31.8665C53.084 30.3499 51.834 28.5498 50.417 28L42.1006 24.8833C40.9668 24.4832 39.0332 24.4832 37.917 24.8999L29.6006 28.0166Z" stroke="#FAFAFA" stroke-opacity="1.000000" stroke-width="1.000000"/>
	<path id="Vector" d="M37.7666 43.7168C37.4502 43.7168 37.1338 43.6001 36.8838 43.3501L34.2002 40.6667C33.7168 40.1833 33.7168 39.3833 34.2002 38.9001C34.6836 38.4167 35.4834 38.4167 35.9668 38.9001L37.7666 40.7L44.0508 34.4167C44.5342 33.9333 45.334 33.9333 45.8174 34.4167C46.3008 34.9001 46.3008 35.7 45.8174 36.1833L38.6504 43.3501C38.4004 43.6001 38.084 43.7168 37.7666 43.7168Z" fill="#FAFAFA" fill-opacity="1.000000" fill-rule="nonzero"/>
	<path id="Vector" d="M36.8838 43.3501L34.2002 40.6667C33.7168 40.1833 33.7168 39.3833 34.2002 38.9001C34.6836 38.4167 35.4834 38.4167 35.9668 38.9001L37.7666 40.7L44.0508 34.4167C44.5342 33.9333 45.334 33.9333 45.8174 34.4167C46.3008 34.9001 46.3008 35.7 45.8174 36.1833L38.6504 43.3501C38.4004 43.6001 38.084 43.7168 37.7666 43.7168C37.4502 43.7168 37.1338 43.6001 36.8838 43.3501Z" stroke="#FAFAFA" stroke-opacity="1.000000" stroke-width="1.000000"/>
	<g opacity="0.000000">
		<path id="Vector" d="M60 20L60 60L20 60L20 20L60 20Z" stroke="#FAFAFA" stroke-opacity="1.000000" stroke-width="1.000000"/>
	</g>
</svg>
