<svg width="80.004883" height="80.000000" viewBox="0 0 80.0049 80" fill="none" xmlns="http://www.w3.org/2000/svg" xmlns:xlink="http://www.w3.org/1999/xlink">
	<desc>
			Created with Pixso.
	</desc>
	<defs>
		<clipPath id="clip21_6239">
			<rect id="Icon-Customer service" width="40.000000" height="40.000000" transform="translate(20.000000 20.000000)" fill="white" fill-opacity="0"/>
		</clipPath>
	</defs>
	<rect id="Services" width="80.000000" height="80.000000" fill="#FFFFFF" fill-opacity="0"/>
	<g opacity="0.300000">
		<path id="Ellipse 6" d="M77.9619 27.4255C75.1123 18.801 69.3291 11.0947 61.0039 5.95825C53.2705 1.19116 43.8867 -0.994873 34.209 0.430908C25.2197 1.74023 16.627 6.09766 10.1289 13.4109C4.08496 20.1917 0.302734 29.0532 0.0263672 38.8323C-0.245117 47.9116 2.55371 57.1311 8.62793 64.8C14.2559 71.9294 22.3262 77.1931 31.9082 79.1636C40.8027 81.0073 50.3682 79.8521 58.9756 75.2019C66.9736 70.8972 73.5586 63.8638 77.1631 54.769C80.5234 46.3301 81.0469 36.7092 77.9619 27.4255ZM35.7891 11.2205C42.3252 10.2595 49.2217 11.5046 55.2764 15.2407C60.8984 18.7122 65.3809 24.0989 67.6113 30.8555C69.6924 37.1255 69.6641 44.1333 67.0293 50.7429C64.5938 56.884 60.0664 62.2336 53.7998 65.6038C47.9873 68.7422 41.0811 69.9307 34.1143 68.4841C27.6436 67.1516 21.5889 63.6228 17.1816 58.0366C13.0811 52.8564 10.7119 46.2617 10.9268 39.1497C11.1152 32.5457 13.5391 25.9705 18.2754 20.6604C22.6641 15.7229 28.748 12.2439 35.7891 11.2205Z" fill="#2F2E30" fill-opacity="1.000000" fill-rule="evenodd"/>
	</g>
	<circle id="Ellipse 5" cx="40.000000" cy="40.000000" r="29.000000" fill="#000000" fill-opacity="1.000000"/>
	<g clip-path="url(#clip21_6239)">
		<path id="Vector" d="M33.334 45L33.334 48.3335C33.334 50.1743 31.8408 51.6667 30 51.6667C28.1592 51.6667 26.667 50.1743 26.667 48.3335L26.667 45C26.667 43.1592 28.1592 41.6667 30 41.6667C31.8408 41.6667 33.334 43.1592 33.334 45Z" stroke="#FFFFFF" stroke-opacity="1.000000" stroke-width="2.000000" stroke-linejoin="round"/>
		<path id="Vector" d="M53.334 45L53.334 48.3335C53.334 50.1743 51.8408 51.6667 50 51.6667C48.1592 51.6667 46.667 50.1743 46.667 48.3335L46.667 45C46.667 43.1592 48.1592 41.6667 50 41.6667C51.8408 41.6667 53.334 43.1592 53.334 45Z" stroke="#FFFFFF" stroke-opacity="1.000000" stroke-width="2.000000" stroke-linejoin="round"/>
		<path id="Vector" d="M26.667 45L26.667 40C26.667 36.4639 28.0713 33.0725 30.5723 30.572C33.0723 28.0715 36.4639 26.6667 40 26.6667C43.5361 26.6667 46.9277 28.0715 49.4287 30.572C51.9287 33.0725 53.334 36.4639 53.334 40L53.334 45" stroke="#FFFFFF" stroke-opacity="1.000000" stroke-width="2.000000" stroke-linejoin="round" stroke-linecap="round"/>
		<path id="Vector" d="M50 51.6667C50 52.9929 48.9463 54.2646 47.0713 55.2024C45.1953 56.1399 42.6523 56.6667 40 56.6667" stroke="#FFFFFF" stroke-opacity="1.000000" stroke-width="2.000000" stroke-linejoin="round" stroke-linecap="round"/>
	</g>
</svg>
