<svg width="80.004883" height="80.000000" viewBox="0 0 80.0049 80" fill="none" xmlns="http://www.w3.org/2000/svg" xmlns:xlink="http://www.w3.org/1999/xlink">
	<desc>
			Created with Pixso.
	</desc>
	<defs>
		<clipPath id="clip21_1929">
			<rect id="icon:shop" width="40.000000" height="40.000000" transform="translate(20.000000 20.000000)" fill="white" fill-opacity="0"/>
		</clipPath>
	</defs>
	<rect id="Services" width="80.000000" height="80.000000" fill="#FFFFFF" fill-opacity="0"/>
	<g opacity="0.300000">
		<path id="Ellipse 6" d="M77.9619 27.4255C75.1123 18.801 69.3291 11.0946 61.0039 5.95813C53.2705 1.19104 43.8867 -0.994873 34.209 0.43103C25.2197 1.74036 16.627 6.09753 10.1289 13.411C4.08496 20.1917 0.302734 29.0533 0.0263672 38.8323C-0.245117 47.9116 2.55371 57.1311 8.62793 64.7999C14.2559 71.9296 22.3262 77.1931 31.9082 79.1635C40.8027 81.0073 50.3682 79.8521 58.9756 75.2019C66.9736 70.8973 73.5586 63.8638 77.1631 54.769C80.5234 46.3301 81.0469 36.7094 77.9619 27.4255ZM35.7891 11.2205C42.3252 10.2595 49.2217 11.5048 55.2764 15.2406C60.8984 18.712 65.3809 24.0988 67.6113 30.8553C69.6924 37.1255 69.6641 44.1332 67.0293 50.7429C64.5938 56.8839 60.0664 62.2336 53.7998 65.6036C47.9873 68.7422 41.0811 69.9307 34.1143 68.4843C27.6436 67.1516 21.5889 63.6228 17.1816 58.0366C13.0811 52.8566 10.7119 46.2616 10.9268 39.1495C11.1152 32.5458 13.5391 25.9705 18.2754 20.6604C22.6641 15.7229 28.748 12.2439 35.7891 11.2205Z" fill="#2F2E30" fill-opacity="1.000000" fill-rule="evenodd"/>
	</g>
	<circle id="Ellipse 5" cx="40.000000" cy="40.000000" r="29.000000" fill="#000000" fill-opacity="1.000000"/>
	<rect id="icon:shop" width="40.000000" height="40.000000" transform="translate(20.000000 20.000000)" fill="#FFFFFF" fill-opacity="0"/>
	<g clip-path="url(#clip21_1929)">
		<path id="Vector" d="M47.4883 25L48.3213 33.3334C48.3213 33.3334 49.9883 35 52.4883 35C53.8008 35.0017 55.0684 34.524 56.0537 33.6566C56.1572 33.5593 56.2354 33.4371 56.2783 33.3015C56.3223 33.166 56.3311 33.0215 56.3037 32.8817L55.127 25.8334C55.0869 25.6005 54.9668 25.389 54.7861 25.2366C54.6064 25.084 54.3779 25.0002 54.1416 25L47.4883 25Z" stroke="#FFFFFF" stroke-opacity="1.000000" stroke-width="2.000000"/>
		<path id="Vector" d="M48.3213 33.3334C48.3213 33.3334 46.6553 35 44.1553 35C41.6553 35 39.9883 33.3334 39.9883 33.3334L39.9883 25L47.4883 25L48.3213 33.3334Z" stroke="#FAFAFA" stroke-opacity="1.000000" stroke-width="2.000000"/>
		<path id="Vector" d="M39.9883 33.3334C39.9883 33.3334 38.3223 35 35.8223 35C33.3223 35 31.6553 33.3334 31.6553 33.3334L32.4883 25L39.9883 25L39.9883 33.3334Z" stroke="#FAFAFA" stroke-opacity="1.000000" stroke-width="2.000000"/>
		<path id="Vector" d="M25.8369 25C25.5996 24.9999 25.3711 25.0837 25.1904 25.2367C25.0098 25.3895 24.8887 25.6016 24.8496 25.835L23.6748 32.8833C23.6475 33.0231 23.6562 33.1676 23.7002 33.3031C23.7432 33.4387 23.8213 33.5609 23.9248 33.6583C24.4717 34.1417 25.6934 35.0017 27.4883 35.0017C29.9883 35.0017 31.6553 33.335 31.6553 33.335L32.4883 25.0017L32.4883 25L25.8369 25Z" stroke="#FAFAFA" stroke-opacity="1.000000" stroke-width="2.000000"/>
		<path id="Vector" d="M25 35L25 51.6666C25 52.5508 25.3516 53.3986 25.9766 54.0237C26.6016 54.6488 27.4492 55 28.333 55L51.667 55C52.5508 55 53.3984 54.6488 54.0234 54.0237C54.6484 53.3986 55 52.5508 55 51.6666L55 35" stroke="#FAFAFA" stroke-opacity="1.000000" stroke-width="2.000000"/>
		<path id="Vector" d="M44.7217 55L44.7217 45C44.7217 44.1158 44.3701 43.2681 43.7451 42.6429C43.1201 42.0178 42.2725 41.6666 41.3887 41.6666L38.0547 41.6666C37.1709 41.6666 36.3232 42.0178 35.6982 42.6429C35.0732 43.2681 34.7217 44.1158 34.7217 45L34.7217 55" stroke="#FAFAFA" stroke-opacity="1.000000" stroke-width="2.000000"/>
	</g>
</svg>
