<svg width="80.004883" height="80.000000" viewBox="0 0 80.0049 80" fill="none" xmlns="http://www.w3.org/2000/svg" xmlns:xlink="http://www.w3.org/1999/xlink">
	<desc>
			Created with Pixso.
	</desc>
	<defs>
		<clipPath id="clip21_6225">
			<rect id="icon-delivery" width="40.000000" height="40.000000" transform="translate(20.000000 20.000000)" fill="white" fill-opacity="0"/>
		</clipPath>
	</defs>
	<rect id="Services" width="80.000000" height="80.000000" fill="#FFFFFF" fill-opacity="0"/>
	<g opacity="0.300000">
		<path id="Ellipse 6" d="M77.9619 27.4255C75.1123 18.801 69.3291 11.0947 61.0039 5.95825C53.2705 1.19116 43.8867 -0.994873 34.209 0.430908C25.2197 1.74023 16.627 6.09766 10.1289 13.4109C4.08496 20.1917 0.302734 29.0532 0.0263672 38.8323C-0.245117 47.9116 2.55371 57.1311 8.62793 64.8C14.2559 71.9294 22.3262 77.1931 31.9082 79.1636C40.8027 81.0073 50.3682 79.8521 58.9756 75.2019C66.9736 70.8972 73.5586 63.8638 77.1631 54.769C80.5234 46.3301 81.0469 36.7092 77.9619 27.4255ZM35.7891 11.2205C42.3252 10.2595 49.2217 11.5046 55.2764 15.2407C60.8984 18.7122 65.3809 24.0989 67.6113 30.8555C69.6924 37.1255 69.6641 44.1333 67.0293 50.7429C64.5938 56.884 60.0664 62.2336 53.7998 65.6038C47.9873 68.7422 41.0811 69.9307 34.1143 68.4841C27.6436 67.1516 21.5889 63.6228 17.1816 58.0366C13.0811 52.8564 10.7119 46.2617 10.9268 39.1497C11.1152 32.5457 13.5391 25.9705 18.2754 20.6604C22.6641 15.7229 28.748 12.2439 35.7891 11.2205Z" fill="#2F2E30" fill-opacity="1.000000" fill-rule="evenodd"/>
	</g>
	<circle id="Ellipse 5" cx="40.000000" cy="40.000000" r="29.000000" fill="#000000" fill-opacity="1.000000"/>
	<rect id="icon-delivery" width="40.000000" height="40.000000" transform="translate(20.000000 20.000000)" fill="#FFFFFF" fill-opacity="0"/>
	<g clip-path="url(#clip21_6225)">
		<path id="Vector" d="M31.666 51.6667C29.8252 51.6667 28.333 50.1743 28.333 48.3333C28.333 46.4924 29.8252 45 31.666 45C33.5068 45 35 46.4924 35 48.3333C35 50.1743 33.5068 51.6667 31.666 51.6667Z" stroke="#FAFAFA" stroke-opacity="1.000000" stroke-width="2.000000" stroke-linejoin="round"/>
		<path id="Vector" d="M48.333 51.6667C46.4922 51.6667 45 50.1743 45 48.3333C45 46.4924 46.4922 45 48.333 45C50.1738 45 51.667 46.4924 51.667 48.3333C51.667 50.1743 50.1738 51.6667 48.333 51.6667Z" stroke="#FAFAFA" stroke-opacity="1.000000" stroke-width="2.000000" stroke-linejoin="round"/>
		<path id="Vector" d="M28.333 48.3335L27 48.3335C25.8955 48.3335 25 47.438 25 46.3335L25 41.6667M23.333 28.3335L39.666 28.3335C40.7705 28.3335 41.666 29.229 41.666 30.3335L41.666 48.3335M35 48.3335L45 48.3335M51.666 48.3335L53 48.3335C54.1045 48.3335 55 47.438 55 46.3335L55 38.3335L50.582 30.9712C50.2207 30.3687 49.5703 30.0002 48.8672 30.0002L41.666 30.0002M55 38.3335L41.666 38.3335" stroke="#FAFAFA" stroke-opacity="1.000000" stroke-width="2.000000" stroke-linejoin="round"/>
		<path id="Vector" d="M28 48L26.667 48C25.5625 48 24.667 47.1045 24.667 46L24.667 41.3333M23 28L39.333 28C40.4375 28 41.333 28.8955 41.333 30L41.333 48M35 48L44.667 48M52 48L52.667 48C53.7715 48 54.667 47.1045 54.667 46L54.667 38L50.249 30.6377C49.8877 30.0352 49.2363 29.6667 48.5342 29.6667L41.333 29.6667M54.667 38L41.333 38" stroke="#FAFAFA" stroke-opacity="1.000000" stroke-width="2.000000" stroke-linejoin="round"/>
		<path id="Vector" d="M25 31.8181L31.667 31.8181" stroke="#FAFAFA" stroke-opacity="1.000000" stroke-width="2.000000" stroke-linejoin="round" stroke-linecap="round"/>
		<path id="Vector" d="M21.8184 35.4546L28.4854 35.4546" stroke="#FAFAFA" stroke-opacity="1.000000" stroke-width="2.000000" stroke-linejoin="round" stroke-linecap="round"/>
		<path id="Vector" d="M25 39.0908L31.667 39.0908" stroke="#FAFAFA" stroke-opacity="1.000000" stroke-width="2.000000" stroke-linejoin="round" stroke-linecap="round"/>
	</g>
</svg>
