<svg width="199.000000" height="24.000000" viewBox="0 0 199 24" fill="none" xmlns="http://www.w3.org/2000/svg" xmlns:xlink="http://www.w3.org/1999/xlink">
	<desc>
			Created with Pixso.
	</desc>
	<defs>
		<clipPath id="clip7_1833">
			<rect id="Icon-Google" width="24.000000" height="24.000000" fill="white" fill-opacity="0"/>
		</clipPath>
	</defs>
	<rect id="Icon-Google" width="24.000000" height="24.000000" fill="#FFFFFF" fill-opacity="0"/>
	<g clip-path="url(#clip7_1833)">
		<path id="Vector" d="M23.7661 12.2764C23.7661 11.4607 23.7 10.6406 23.5588 9.83807L12.24 9.83807L12.24 14.459L18.7217 14.459C18.4526 15.9494 17.5886 17.2678 16.323 18.1056L16.323 21.1039L20.1899 21.1039C22.4609 19.0139 23.7661 15.9274 23.7661 12.2764Z" fill="#4285F4" fill-opacity="1.000000" fill-rule="nonzero"/>
		<path id="Vector" d="M12.24 24.0009C15.4766 24.0009 18.2058 22.9382 20.1946 21.1039L16.3276 18.1055C15.2517 18.8375 13.8628 19.252 12.2446 19.252C9.11377 19.252 6.45947 17.1399 5.50708 14.3003L1.5166 14.3003L1.5166 17.3912C3.55371 21.4434 7.70288 24.0009 12.24 24.0009Z" fill="#34A853" fill-opacity="1.000000" fill-rule="nonzero"/>
		<path id="Vector" d="M5.50244 14.3003C4.99976 12.8099 4.99976 11.1961 5.50244 9.70575L5.50244 6.61481L1.5166 6.61481C-0.185547 10.0056 -0.185547 14.0004 1.5166 17.3912L5.50244 14.3003Z" fill="#FBBC04" fill-opacity="1.000000" fill-rule="nonzero"/>
		<path id="Vector" d="M12.24 4.74963C13.9509 4.72321 15.6045 5.36694 16.8435 6.54865L20.2695 3.12262C18.1001 1.08551 15.2207 -0.0344849 12.24 0.000793457C7.70288 0.000793457 3.55371 2.55823 1.5166 6.61481L5.50269 9.70575C6.45068 6.86176 9.10938 4.74963 12.24 4.74963Z" fill="#EA4335" fill-opacity="1.000000" fill-rule="nonzero"/>
	</g>
	<path id="Sign up with Google" d="M50.9641 7.72497Q51.1516 7.80859 51.3764 7.80859Q51.5676 7.80859 51.7318 7.74201Q51.9098 7.66987 52.0561 7.51953Q52.1836 7.38841 52.2533 7.23157Q52.3373 7.04265 52.3373 6.81641Q52.3373 6.57657 52.2447 6.38046Q52.1759 6.23481 52.0561 6.11328Q51.9098 5.96295 51.7318 5.8908Q51.5676 5.82422 51.3764 5.82422Q51.1516 5.82422 50.9641 5.90784Q50.8029 5.97969 50.6693 6.11328Q50.5442 6.23847 50.4739 6.38925Q50.3842 6.58193 50.3842 6.81641Q50.3842 7.03748 50.4655 7.22293Q50.5364 7.38481 50.6693 7.51953Q50.8029 7.65312 50.9641 7.72497ZM118.676 7.72497Q118.864 7.80859 119.088 7.80859Q119.28 7.80859 119.444 7.74201Q119.622 7.66987 119.768 7.51953Q119.896 7.38841 119.965 7.23157Q120.049 7.04265 120.049 6.81641Q120.049 6.57657 119.957 6.38046Q119.888 6.23481 119.768 6.11328Q119.622 5.96295 119.444 5.8908Q119.28 5.82422 119.088 5.82422Q118.864 5.82422 118.676 5.90784Q118.515 5.97969 118.381 6.11328Q118.256 6.23847 118.186 6.38925Q118.096 6.58193 118.096 6.81641Q118.096 7.03748 118.177 7.22293Q118.248 7.38481 118.381 7.51953Q118.515 7.65312 118.676 7.72497ZM134.005 9.38238Q133.296 9.07031 132.45 9.07031Q131.505 9.07031 130.743 9.44141Q130.231 9.68963 129.866 10.0771Q129.692 10.2628 129.551 10.4805L129.551 6.16016L128.094 6.16016L128.094 18L129.551 18L129.551 13.1523Q129.551 11.7773 130.231 11.0586Q130.414 10.8638 130.632 10.7215Q131.221 10.3359 132.063 10.3359Q132.932 10.3359 133.521 10.7424Q133.702 10.8676 133.856 11.0312L133.859 11.0339Q134.512 11.729 134.512 13.0391L134.512 18L135.954 18L135.954 12.832Q135.954 11.6172 135.497 10.7695Q135.187 10.1956 134.72 9.81512Q134.498 9.6336 134.239 9.49609Q134.124 9.43483 134.005 9.38238ZM187.807 18L187.807 6.16016L186.35 6.16016L186.35 18L187.807 18ZM42.793 17.7227Q43.6641 18.1133 44.7695 18.1133Q45.9219 18.1133 46.7695 17.6641Q47.5688 17.2405 47.9964 16.5773Q48.0223 16.5372 48.0469 16.4961Q48.3055 16.0674 48.4098 15.604Q48.4805 15.2904 48.4805 14.9609Q48.4805 13.9023 48 13.2891Q47.6352 12.8204 47.16 12.5364Q47.0093 12.4464 46.8477 12.375Q46.1758 12.0781 45.0703 11.7773Q44.1602 11.5195 43.6562 11.3203Q43.2816 11.1722 42.9955 10.9226Q42.8968 10.8365 42.8086 10.7383Q42.7429 10.6644 42.6898 10.5823Q42.4648 10.2351 42.4648 9.74219Q42.4648 9.16696 42.7293 8.76623Q42.8545 8.57644 43.0391 8.42578Q43.0936 8.38123 43.151 8.34088Q43.703 7.95312 44.5273 7.95312Q45.4779 7.95312 46.0621 8.41579Q46.0781 8.42842 46.0938 8.44141Q46.5776 8.83933 46.7216 9.33583Q46.7543 9.44858 46.7695 9.56641L48.3672 9.56641Q48.2982 8.87419 47.9795 8.32753Q47.7029 7.85309 47.2383 7.48828Q47.1849 7.44634 47.1298 7.40664Q46.1546 6.70312 44.6719 6.70312Q43.5859 6.70312 42.7422 7.08984Q42.0781 7.39254 41.6485 7.8955Q41.5348 8.02863 41.4375 8.17578Q41.3224 8.35131 41.2361 8.53999Q40.9766 9.1071 40.9766 9.79297Q40.9766 10.832 41.4492 11.4492Q41.8206 11.9311 42.3077 12.2128Q42.4406 12.2896 42.582 12.3516Q43.2461 12.6406 44.3516 12.9297Q45.2461 13.168 45.7734 13.3789Q46.2038 13.5466 46.5162 13.8399Q46.5895 13.9087 46.6562 13.9844Q46.7085 14.0436 46.753 14.1082Q47.0078 14.4781 47.0078 15.0234Q47.0078 15.4631 46.8333 15.8167Q46.6838 16.1197 46.4062 16.3594Q46.3984 16.3662 46.3905 16.3729Q45.7949 16.8789 44.7695 16.8789Q43.6797 16.8789 43.1094 16.3438Q42.8406 16.0898 42.6818 15.7796Q42.5059 15.4361 42.4648 15.0234L40.9102 15.0234Q40.9237 15.6572 41.1663 16.1858Q41.2737 16.4196 41.4258 16.6328Q41.4754 16.7023 41.5287 16.7688Q42.009 17.3676 42.793 17.7227ZM150.288 9.00914Q150.757 9.45338 151.056 10.0781L152.802 10.0781Q152.405 9.06289 151.706 8.33788Q151.306 7.92196 150.806 7.60156Q150.482 7.39223 150.134 7.23253Q149.018 6.71875 147.665 6.71875Q146.579 6.71875 145.626 7.07544Q145.215 7.22919 144.829 7.44922Q144.293 7.75394 143.851 8.16036Q143.239 8.72297 142.806 9.48047Q142.661 9.73474 142.545 10.0013Q142.064 11.1026 142.064 12.4141Q142.064 13.7635 142.57 14.8835Q142.677 15.1187 142.806 15.3438Q143.224 16.0711 143.81 16.6202Q144.268 17.0503 144.829 17.3711Q145.207 17.5851 145.608 17.7361Q146.568 18.0977 147.665 18.0977Q148.815 18.0977 149.798 17.6928Q150.074 17.5792 150.337 17.4336Q150.977 17.0794 151.484 16.5885Q151.928 16.159 152.271 15.625Q152.594 15.1232 152.801 14.577Q153.065 13.8776 153.138 13.1055L153.138 11.9844L147.138 11.9844L147.138 13.168L151.583 13.168Q151.443 14.4905 150.749 15.3787Q150.569 15.6081 150.353 15.8086Q150.071 16.0694 149.748 16.2605Q148.862 16.7852 147.665 16.7852Q146.739 16.7852 145.958 16.4487Q145.754 16.3609 145.56 16.25Q145.22 16.0548 144.934 15.8003Q144.428 15.3517 144.087 14.7188Q143.552 13.7266 143.552 12.4141Q143.552 11.1055 144.087 10.1055Q144.44 9.44528 144.969 8.98769Q145.241 8.75216 145.56 8.57031Q145.763 8.45343 145.977 8.36189Q146.75 8.03125 147.665 8.03125Q148.719 8.03125 149.538 8.47019Q149.626 8.51768 149.712 8.57031Q150.026 8.76174 150.288 9.00914ZM124.048 15.6016L124.048 10.4336L126.337 10.4336L126.337 9.23047L124.048 9.23047L124.048 7.02344L122.591 7.02344L122.591 9.23047L121.454 9.23047L121.454 10.4336L122.591 10.4336L122.591 15.6016Q122.591 16.8789 123.2 17.4414Q123.81 18 125.024 18L126.337 18L126.337 16.7695L125.263 16.7695Q124.591 16.7695 124.317 16.5039Q124.048 16.2383 124.048 15.6016ZM71.6963 9.60815Q70.8412 9.07031 69.6479 9.07031Q68.9044 9.07031 68.2634 9.32671Q68.1332 9.37877 68.0073 9.44141Q67.5449 9.67015 67.2023 10.0171Q66.995 10.2271 66.8315 10.4805L66.8315 9.23047L65.3745 9.23047L65.3745 18L66.8315 18L66.8315 13.1523Q66.8315 11.7773 67.5112 11.0586Q67.6944 10.8638 67.9119 10.7215Q68.5015 10.3359 69.3432 10.3359Q70.2123 10.3359 70.8006 10.7424Q70.9817 10.8676 71.1362 11.0312L71.1387 11.0339Q71.7924 11.729 71.7924 13.0391L71.7924 18L73.2338 18L73.2338 12.832Q73.2338 11.1733 72.4135 10.2219Q72.3317 10.1269 72.2417 10.0391Q71.9888 9.79214 71.6963 9.60815ZM60.1388 9.56927Q59.2931 9.08984 58.1757 9.08984Q57.3574 9.08984 56.6446 9.36399Q56.34 9.48117 56.0546 9.64844Q55.7304 9.8392 55.4532 10.0833Q54.9186 10.5539 54.5585 11.2227Q54.0155 12.2383 54.0155 13.5859Q54.0155 14.9049 54.5542 15.9449Q54.5563 15.949 54.5585 15.9531Q54.9367 16.6718 55.5074 17.1699Q55.7619 17.392 56.0546 17.5703Q56.3714 17.7612 56.712 17.8886Q57.396 18.1445 58.1757 18.1445Q59.257 18.1445 60.0767 17.6815Q60.1187 17.6577 60.16 17.6328Q60.9405 17.1617 61.3699 16.4719Q61.4069 16.4126 61.4413 16.3516L61.4413 18.1914Q61.4413 19.3748 60.864 20.0964Q60.7782 20.2037 60.6796 20.3008Q60.4513 20.5278 60.1827 20.6865Q59.5594 21.0547 58.7186 21.0547Q57.7013 21.0547 56.9639 20.6004Q56.9368 20.5837 56.91 20.5664Q56.4204 20.2477 56.1489 19.7974Q56.0045 19.5579 55.9217 19.2812L54.4803 19.2812Q54.586 19.9991 54.938 20.5632Q55.2756 21.1042 55.8397 21.5039Q55.8453 21.5079 55.8509 21.5118Q57.0004 22.3203 58.7186 22.3203Q59.9842 22.3203 60.9335 21.793Q61.4701 21.4961 61.8668 21.0691Q62.1747 20.7378 62.3983 20.3281Q62.4239 20.2813 62.4481 20.2339Q62.91 19.3307 62.91 18.1914L62.91 9.23047L61.4413 9.23047L61.4413 10.832Q61.418 10.7901 61.3935 10.749Q60.9757 10.0508 60.1678 9.58594Q60.1534 9.57753 60.1388 9.56927ZM91.5895 10.8373Q91.5865 10.8425 91.5835 10.8477L91.5835 9.23047L90.1265 9.23047L90.1265 22.1602L91.5835 22.1602L91.5835 16.3828Q91.5953 16.4026 91.6074 16.4223Q92.0552 17.15 92.8882 17.6406Q92.9586 17.6821 93.0307 17.7201Q93.8359 18.1445 94.8648 18.1445Q95.6551 18.1445 96.3452 17.8816Q96.675 17.756 96.9819 17.5703Q97.2935 17.3813 97.5613 17.1431Q98.1126 16.6525 98.478 15.9531Q98.4863 15.9373 98.4945 15.9214Q99.0249 14.8901 99.0249 13.5859Q99.0249 12.2383 98.478 11.2227Q98.1304 10.5723 97.6145 10.1094Q97.3248 9.84935 96.9819 9.64844Q96.7066 9.48641 96.4129 9.37139Q95.6939 9.08984 94.8648 9.08984Q93.7735 9.08984 92.9415 9.55424Q92.9068 9.57359 92.8726 9.59375Q92.023 10.0942 91.5895 10.8373ZM157.106 17.8076Q157.923 18.1445 158.879 18.1445Q159.853 18.1445 160.69 17.8052Q160.926 17.7092 161.152 17.5859Q161.591 17.3446 161.952 17.0168Q162.432 16.5809 162.773 15.9922Q162.803 15.9406 162.832 15.8881Q163.375 14.8929 163.375 13.6016Q163.375 12.2383 162.789 11.2148Q162.45 10.6182 161.966 10.1822Q161.619 9.87033 161.199 9.64062Q161.022 9.54394 160.838 9.46423Q159.972 9.08984 158.945 9.08984Q157.9 9.08984 157.024 9.47501Q156.852 9.55043 156.687 9.64062Q156.3 9.85206 155.976 10.1349Q155.455 10.5888 155.094 11.2266Q155.072 11.2655 155.05 11.305Q154.512 12.3086 154.512 13.6016Q154.512 14.9609 155.078 15.9922Q155.414 16.6 155.9 17.045Q156.238 17.355 156.648 17.5859Q156.872 17.7107 157.106 17.8076ZM167.346 17.8076Q168.163 18.1445 169.119 18.1445Q170.093 18.1445 170.93 17.8052Q171.166 17.7092 171.392 17.5859Q171.831 17.3446 172.192 17.0168Q172.672 16.5809 173.013 15.9922Q173.043 15.9406 173.072 15.8881Q173.615 14.8929 173.615 13.6016Q173.615 12.2383 173.029 11.2148Q172.69 10.6182 172.206 10.1822Q171.859 9.87033 171.439 9.64062Q171.262 9.54394 171.078 9.46423Q170.212 9.08984 169.185 9.08984Q168.14 9.08984 167.264 9.47501Q167.092 9.55043 166.927 9.64062Q166.54 9.85206 166.216 10.1349Q165.695 10.5888 165.334 11.2266Q165.312 11.2655 165.29 11.305Q164.751 12.3086 164.751 13.6016Q164.751 14.9609 165.318 15.9922Q165.654 16.6 166.14 17.045Q166.478 17.355 166.888 17.5859Q167.112 17.7107 167.346 17.8076ZM181.115 9.56927Q180.269 9.08984 179.152 9.08984Q178.333 9.08984 177.621 9.36399Q177.316 9.48117 177.031 9.64844Q176.706 9.8392 176.429 10.0833Q175.895 10.5539 175.534 11.2227Q174.992 12.2383 174.992 13.5859Q174.992 14.9049 175.53 15.9449L175.534 15.9531Q175.913 16.6718 176.483 17.1699Q176.738 17.392 177.031 17.5703Q177.347 17.7612 177.688 17.8886Q178.372 18.1445 179.152 18.1445Q180.233 18.1445 181.053 17.6815Q181.095 17.6577 181.136 17.6328Q181.916 17.1617 182.346 16.4719Q182.383 16.4126 182.417 16.3516L182.417 18.1914Q182.417 19.3748 181.84 20.0964Q181.754 20.2037 181.656 20.3008Q181.427 20.5278 181.159 20.6865Q180.535 21.0547 179.695 21.0547Q178.677 21.0547 177.94 20.6004Q177.913 20.5837 177.886 20.5664Q177.396 20.2477 177.125 19.7974Q176.98 19.5579 176.898 19.2812L175.456 19.2812Q175.562 19.9991 175.914 20.5632Q176.252 21.1042 176.816 21.5039L176.827 21.5118Q177.976 22.3203 179.695 22.3203Q180.96 22.3203 181.909 21.793Q182.446 21.4961 182.843 21.0691Q183.151 20.7378 183.374 20.3281Q183.4 20.2813 183.424 20.2339Q183.886 19.3307 183.886 18.1914L183.886 9.23047L182.417 9.23047L182.417 10.832Q182.394 10.7901 182.369 10.749Q181.952 10.0508 181.144 9.58594Q181.129 9.57753 181.115 9.56927ZM198.24 14.1602Q198.286 13.6953 198.286 13.2812Q198.286 12.1821 197.853 11.2949Q197.812 11.2109 197.767 11.1289Q197.536 10.7047 197.217 10.3617Q196.82 9.9341 196.286 9.63281Q196.25 9.61222 196.213 9.59241Q195.282 9.08984 194.079 9.08984Q192.835 9.08984 191.87 9.60977Q191.842 9.62498 191.814 9.64062Q191.421 9.86125 191.098 10.1577Q190.614 10.6014 190.286 11.2148Q189.743 12.2383 189.743 13.6016Q189.743 14.9609 190.302 15.9922Q190.65 16.6303 191.16 17.0889Q191.474 17.3715 191.849 17.5859Q191.99 17.6658 192.136 17.7342Q193.011 18.1445 194.079 18.1445Q195.501 18.1445 196.499 17.495Q196.604 17.4269 196.704 17.3516Q197.251 16.9408 197.608 16.4044Q197.941 15.9051 198.111 15.2969L196.544 15.2969Q196.409 15.6811 196.172 15.9851Q195.955 16.2622 195.654 16.4727Q195.025 16.9102 194.079 16.9102Q193.373 16.9102 192.796 16.637Q192.431 16.4647 192.118 16.1836Q191.96 16.0403 191.829 15.8748Q191.298 15.2013 191.232 14.1602L198.24 14.1602ZM52.0795 18L52.0795 9.23047L50.6225 9.23047L50.6225 18L52.0795 18ZM87.6638 18L87.6638 9.23047L86.2068 9.23047L86.2068 14.0469Q86.2068 15.4258 85.5349 16.1445Q85.3734 16.3173 85.1833 16.4485Q84.5824 16.8633 83.6951 16.8633Q82.8259 16.8633 82.2377 16.4568Q82.0566 16.3316 81.9021 16.168Q81.8961 16.1615 81.8901 16.1551Q81.2498 15.4607 81.2498 14.1758L81.2498 9.23047L79.8083 9.23047L79.8083 14.3672Q79.8083 15.5859 80.281 16.4336Q80.5982 17.0025 81.0686 17.3814Q81.299 17.567 81.5662 17.707Q81.5873 17.718 81.6086 17.7286Q82.4092 18.1289 83.4099 18.1289Q84.154 18.1289 84.7926 17.8694Q84.9218 17.817 85.0466 17.7539Q85.5669 17.4897 85.9257 17.0831Q86.0814 16.9065 86.2068 16.7031L86.2068 18L87.6638 18ZM114.16 18L116.894 9.23047L115.457 9.23047L113.472 16.6094L111.343 9.23047L109.855 9.23047L107.679 16.5938L105.664 9.23047L104.175 9.23047L106.929 18L108.433 18L110.543 11.0391L112.656 18L114.16 18ZM119.792 18L119.792 9.23047L118.334 9.23047L118.334 18L119.792 18ZM196.415 11.5469Q196.783 12.1445 196.783 12.9766L191.247 12.9766Q191.341 11.941 191.888 11.2808Q192.001 11.1441 192.134 11.0234Q192.443 10.7439 192.804 10.5755Q193.351 10.3203 194.017 10.3203Q194.692 10.3203 195.264 10.5634Q195.341 10.5959 195.415 10.6328Q195.735 10.7905 195.986 11.0217Q196.233 11.2488 196.415 11.5469ZM61.0389 11.875Q61.4413 12.6094 61.4413 13.6016Q61.4413 14.5938 61.0389 15.3359Q60.7481 15.8777 60.3074 16.2342Q60.1444 16.3661 59.9608 16.4727Q59.7241 16.6087 59.4707 16.6974Q58.9967 16.8633 58.4647 16.8633Q57.9094 16.8633 57.421 16.6826Q57.1913 16.5976 56.9764 16.4727Q56.8239 16.3831 56.6853 16.2756Q56.2132 15.9096 55.9022 15.3359Q55.5038 14.5938 55.5038 13.5859Q55.5038 12.5938 55.9022 11.8594Q56.2136 11.2881 56.6863 10.9296Q56.8245 10.8249 56.9764 10.7383Q57.1832 10.6193 57.4036 10.5369Q57.8995 10.3516 58.4647 10.3516Q58.9874 10.3516 59.454 10.5133Q59.7163 10.6041 59.9608 10.7461Q60.149 10.8542 60.3156 10.989Q60.7508 11.3411 61.0389 11.875ZM97.1343 11.8594Q97.5366 12.5938 97.5366 13.5859Q97.5366 14.5938 97.1343 15.3359Q96.8434 15.8777 96.4027 16.2342Q96.2397 16.3661 96.0562 16.4727Q95.8194 16.6087 95.5661 16.6974Q95.0921 16.8633 94.5601 16.8633Q94.0958 16.8633 93.6722 16.732Q93.3652 16.6368 93.0796 16.4727Q92.9179 16.3788 92.7715 16.2653Q92.3023 15.9016 91.9898 15.3359Q91.5835 14.5938 91.5835 13.6016Q91.5835 12.625 91.9898 11.8828Q92.3085 11.303 92.7901 10.9378Q92.9281 10.8331 93.0796 10.7461Q93.3723 10.5762 93.6875 10.4795Q94.1041 10.3516 94.5601 10.3516Q95.1017 10.3516 95.5831 10.5218Q95.8274 10.6081 96.0562 10.7383Q96.2384 10.8409 96.4004 10.9691Q96.8427 11.319 97.1343 11.8594ZM159.685 16.7597Q159.296 16.8633 158.879 16.8633Q158.352 16.8633 157.882 16.6998Q157.655 16.6209 157.441 16.5039Q157.325 16.4403 157.217 16.365Q156.715 16.0146 156.39 15.4102Q156 14.6719 156 13.6016Q156 12.543 156.398 11.8086Q156.729 11.2013 157.237 10.8504Q157.347 10.7747 157.465 10.7109Q157.637 10.6177 157.818 10.5486Q158.336 10.3516 158.929 10.3516Q159.403 10.3516 159.836 10.4833Q160.118 10.5692 160.383 10.7109Q160.501 10.7743 160.612 10.8495Q161.128 11.2005 161.469 11.8086Q161.887 12.543 161.887 13.6016Q161.887 14.6562 161.461 15.3945Q161.137 15.958 160.657 16.3053Q160.511 16.4107 160.351 16.4961Q160.029 16.6683 159.685 16.7597ZM169.925 16.7597Q169.536 16.8633 169.119 16.8633Q168.592 16.8633 168.122 16.6998Q167.895 16.6209 167.681 16.5039Q167.565 16.4403 167.457 16.365Q166.955 16.0146 166.63 15.4102Q166.24 14.6719 166.24 13.6016Q166.24 12.543 166.638 11.8086Q166.969 11.2013 167.477 10.8504Q167.587 10.7747 167.705 10.7109Q167.877 10.6177 168.058 10.5486Q168.576 10.3516 169.169 10.3516Q169.643 10.3516 170.076 10.4833Q170.358 10.5692 170.623 10.7109Q170.741 10.7743 170.852 10.8495Q171.368 11.2005 171.709 11.8086Q172.126 12.543 172.126 13.6016Q172.126 14.6562 171.701 15.3945Q171.377 15.958 170.897 16.3053Q170.751 16.4107 170.591 16.4961Q170.269 16.6683 169.925 16.7597ZM182.015 11.875Q182.417 12.6094 182.417 13.6016Q182.417 14.5938 182.015 15.3359Q181.724 15.8777 181.283 16.2342Q181.12 16.3661 180.937 16.4727Q180.7 16.6087 180.447 16.6974Q179.973 16.8633 179.441 16.8633Q178.885 16.8633 178.397 16.6826Q178.167 16.5976 177.952 16.4727Q177.8 16.3831 177.661 16.2756Q177.189 15.9096 176.878 15.3359Q176.48 14.5938 176.48 13.5859Q176.48 12.5938 176.878 11.8594Q177.19 11.2881 177.662 10.9296Q177.8 10.8249 177.952 10.7383Q178.159 10.6193 178.38 10.5369Q178.876 10.3516 179.441 10.3516Q179.963 10.3516 180.43 10.5133Q180.692 10.6041 180.937 10.7461Q181.125 10.8542 181.292 10.989Q181.727 11.3411 182.015 11.875Z" fill="#000000" fill-opacity="1.000000" fill-rule="evenodd"/>
</svg>
