<svg width="20.058594" height="16.646851" viewBox="0 0 20.0586 16.6469" fill="none" xmlns="http://www.w3.org/2000/svg" xmlns:xlink="http://www.w3.org/1999/xlink">
	<desc>
			Created with Pixso.
	</desc>
	<defs/>
	<path id="Vector" d="M13.9053 2.00134C13.1445 2.00122 12.415 2.29944 11.873 2.83191C11.3301 3.36426 11.0186 4.08838 11.0049 4.84827L10.9766 6.42334C10.9756 6.50781 10.9561 6.59106 10.9199 6.6676C10.8838 6.74414 10.832 6.81213 10.7676 6.86719C10.7031 6.92224 10.6279 6.96301 10.5469 6.98706C10.4658 7.01099 10.3809 7.01758 10.2969 7.00635L8.73633 6.79431C6.68164 6.51428 4.71387 5.56824 2.82617 3.99524C2.22754 7.3053 3.39648 9.59827 6.20898 11.3673L7.95605 12.4653C8.03906 12.5175 8.1084 12.5891 8.15723 12.6742C8.20605 12.7592 8.2334 12.8547 8.23633 12.9528C8.24023 13.0508 8.21875 13.1481 8.17578 13.2362C8.13281 13.3243 8.06934 13.4005 7.99023 13.4583L6.39844 14.6213C7.34473 14.6803 8.24414 14.6383 8.99023 14.4902C13.708 13.5483 16.8447 9.99829 16.8447 4.14233C16.8447 3.66431 15.833 2.00134 13.9053 2.00134ZM9.00488 4.81128C9.02246 3.84729 9.32422 2.90991 9.87109 2.11646C10.4189 1.32312 11.1885 0.708862 12.084 0.350708C12.9795 -0.00744629 13.96 -0.0936279 14.9033 0.103027C15.8477 0.299683 16.7129 0.770386 17.3896 1.4563C18.1006 1.45129 18.7061 1.63123 20.0586 0.811279C19.7236 2.45129 19.5586 3.16333 18.8447 4.14233C18.8447 11.7843 14.1484 15.5002 9.38184 16.4513C6.11426 17.1033 1.3623 16.0322 0 14.6102C0.694336 14.5563 3.51367 14.2533 5.14355 13.0603C3.76465 12.1512 -1.72363 8.92126 1.88281 0.237305C3.57617 2.21423 5.29297 3.5603 7.0332 4.27429C8.19141 4.74927 8.47461 4.73926 9.00586 4.81226L9.00488 4.81128Z" fill="#000000" fill-opacity="1.000000" fill-rule="nonzero"/>
	<path id="Vector" d="M17.3896 1.4563C16.7129 0.770386 15.8477 0.299683 14.9033 0.103027C13.96 -0.0936279 12.9795 -0.00744629 12.084 0.350708C11.1885 0.708862 10.4189 1.32312 9.87109 2.11646C9.3623 2.85498 9.06543 3.71814 9.0127 4.61133C9.00879 4.67786 9.00586 4.74451 9.00488 4.81128L9.00586 4.81226C8.93555 4.80261 8.87012 4.79443 8.80566 4.78638C8.38477 4.7334 8.03809 4.6864 7.0332 4.27429C5.34277 3.58081 3.6748 2.29138 2.0293 0.406738C1.98047 0.350708 1.93164 0.294312 1.88281 0.237305C1.85449 0.306885 1.82617 0.376221 1.79785 0.44519C-1.50098 8.63733 3.36328 11.8995 4.96484 12.943C4.97949 12.9525 4.99316 12.9619 5.00781 12.9711C5.05664 13.0031 5.10254 13.0327 5.14355 13.0603C5.08691 13.1024 5.02734 13.1434 4.9668 13.1833C3.48535 14.1633 1.19824 14.4921 0.262695 14.5865C0.15625 14.5973 0.0683594 14.605 0 14.6102C0.0595703 14.6722 0.125 14.7335 0.197266 14.7941C1.77344 16.1223 6.25684 17.0748 9.38184 16.4513C14.1484 15.5002 18.8447 11.7843 18.8447 4.14233C19.5195 3.21753 19.7041 2.53101 20.0049 1.07544C20.0225 0.990112 20.04 0.9021 20.0586 0.811279C19.9795 0.859619 19.9023 0.904541 19.8271 0.946289C18.8311 1.50098 18.2656 1.48169 17.7168 1.46289C17.6084 1.45923 17.5 1.45557 17.3896 1.4563ZM19.7744 1.20178Q19.209 1.49597 18.7227 1.59998Q18.46 1.65613 18.1787 1.66687Q18.0137 1.67322 17.71 1.66284Q17.498 1.65552 17.3916 1.65625L17.3066 1.65686L17.248 1.5968Q17.0039 1.3501 16.7295 1.1438Q16.4561 0.937622 16.1514 0.771851Q15.8467 0.606079 15.5244 0.487793Q15.2021 0.369507 14.8633 0.298828Q14.5234 0.228027 14.1807 0.207886Q13.8389 0.187744 13.4932 0.218018Q13.1475 0.248413 12.8135 0.327881Q12.4805 0.407471 12.1582 0.536377Q11.8359 0.665161 11.54 0.837646Q11.2432 1.01025 10.9727 1.22668Q10.7012 1.44299 10.4668 1.69373Q10.2334 1.9447 10.0361 2.2301Q9.83887 2.5155 9.6875 2.82336Q9.53613 3.1311 9.42969 3.46118Q9.32324 3.79138 9.26758 4.13Q9.21777 4.42712 9.20703 4.73059L9.56836 5.09143L8.97852 5.01038Q8.91504 5.00171 8.7959 4.98669Q8.37598 4.93408 8.09766 4.86108Q7.6543 4.74524 6.95703 4.45935Q4.41309 3.41541 1.94531 0.614502Q0.865234 3.33643 0.875 5.63489Q0.882812 7.38745 1.52441 8.86462Q1.61719 9.07935 1.72363 9.28821Q2.37109 10.5558 3.50098 11.5872Q3.91211 11.9623 4.39746 12.3143Q4.6748 12.5155 5.11621 12.8035Q5.21191 12.8654 5.25391 12.8933L5.49414 13.0518L5.26172 13.2217Q4.18359 14.0111 2.2666 14.4572Q1.60547 14.611 0.895508 14.7112Q0.680664 14.7415 0.480469 14.7644Q0.930664 15.0984 1.6582 15.4053Q2.68652 15.8385 4.0166 16.1127Q5.37988 16.3936 6.73535 16.4387Q8.18066 16.4871 9.34277 16.2551Q11.0107 15.9224 12.4736 15.1837Q12.626 15.1068 12.7764 15.0256Q14.0684 14.3258 15.0977 13.3496Q15.4385 13.0267 15.751 12.6735Q16.002 12.3889 16.2324 12.0879Q17.2529 10.7507 17.8486 9.08838Q18.6445 6.86328 18.6445 4.14233L18.6445 4.07715L18.6836 4.02441Q18.9404 3.67249 19.1123 3.34631Q19.2793 3.02808 19.4053 2.66016Q19.5195 2.32275 19.6338 1.84009Q19.6895 1.60535 19.7744 1.20178ZM12.2002 2.3114Q11.9502 2.47571 11.7324 2.68909Q11.5156 2.90259 11.3467 3.14929Q11.1777 3.39587 11.0566 3.67566Q10.9365 3.95557 10.874 4.24768Q10.8105 4.53992 10.8047 4.8446L10.7773 6.41968Q10.7764 6.46045 10.7676 6.49951Q10.7578 6.54199 10.7393 6.58228Q10.7207 6.62097 10.6953 6.65417Q10.6699 6.6875 10.6377 6.71533Q10.6055 6.74316 10.5684 6.76318Q10.5312 6.78308 10.4902 6.79529Q10.4492 6.80737 10.4082 6.81055Q10.3662 6.81384 10.3232 6.80811L8.7627 6.59607Q5.77051 6.18823 2.9541 3.84167L2.69043 3.62183L2.62891 3.95972Q2.17578 6.47131 3.05762 8.34436Q3.91211 10.1589 6.10254 11.5366L7.84961 12.6346Q7.8916 12.6611 7.9248 12.6959Q7.95898 12.7307 7.9834 12.7738Q8.00781 12.817 8.02148 12.8634Q8.03516 12.9099 8.03613 12.9596Q8.03809 13.0093 8.02832 13.0565Q8.01855 13.1038 7.99609 13.1486Q7.97461 13.1932 7.94336 13.2303Q7.91211 13.2673 7.87207 13.2966L5.83301 14.7865L6.38574 14.8209Q7.88184 14.9141 9.0293 14.6865Q10.8438 14.3242 12.3086 13.4724Q13.2617 12.9177 14.0352 12.1747Q14.4678 11.7584 14.8438 11.2831Q15.916 9.92737 16.4717 8.1571Q17.0449 6.33264 17.0449 4.14233Q17.0449 3.88989 16.8311 3.5083Q16.6035 3.10107 16.2363 2.74841Q15.9102 2.43384 15.5264 2.21985Q15.3965 2.14709 15.2588 2.08594Q15.0342 1.98547 14.7988 1.92041Q14.3682 1.80127 13.9053 1.80127Q13.6006 1.80127 13.3076 1.85876Q13.0137 1.91638 12.7314 2.03174Q12.4492 2.14697 12.2002 2.3114ZM13.9053 2.00134C13.1445 2.00122 12.415 2.29944 11.873 2.83191C11.3301 3.36426 11.0186 4.08838 11.0049 4.84827L10.9766 6.42334C10.9756 6.50781 10.9561 6.59106 10.9199 6.6676C10.8838 6.74414 10.832 6.81213 10.7676 6.86719C10.7031 6.92224 10.6279 6.96301 10.5469 6.98706C10.4658 7.01099 10.3809 7.01758 10.2969 7.00635L8.73633 6.79431C6.74609 6.52307 4.83691 5.62683 3.00391 4.14111C2.94434 4.09314 2.88477 4.04456 2.82617 3.99524C2.8125 4.07166 2.7998 4.14758 2.78711 4.2229C2.2832 7.41089 3.46094 9.63916 6.20898 11.3673L7.95605 12.4653C8.03906 12.5175 8.1084 12.5891 8.15723 12.6742C8.20605 12.7592 8.2334 12.8547 8.23633 12.9528C8.24023 13.0508 8.21875 13.1481 8.17578 13.2362C8.13281 13.3243 8.06934 13.4005 7.99023 13.4583L6.65332 14.4347L6.39844 14.6213C6.50391 14.6279 6.61035 14.6333 6.71484 14.6373C7.54492 14.6696 8.32812 14.6217 8.99023 14.4902C13.708 13.5483 16.8447 9.99829 16.8447 4.14233C16.8447 3.66431 15.833 2.00134 13.9053 2.00134Z" fill="#FFFFFF" fill-opacity="1.000000" fill-rule="evenodd"/>
</svg>
