<svg width="19.000000" height="18.000000" viewBox="0 0 19 18" fill="none" xmlns="http://www.w3.org/2000/svg" xmlns:xlink="http://www.w3.org/1999/xlink">
	<desc>
			Created with Pixso.
	</desc>
	<defs/>
	<path id="Vector" d="M16.82 5.18L12.87 5.18C12.25 5.18 11.71 4.78 11.53 4.19L10.33 0.32C9.93 -0.99 8.06 -0.99 7.66 0.32L6.46 4.19C6.28 4.78 5.74 5.18 5.12 5.18L1.12 5.18C-0.21 5.18 -0.79 6.88 0.27 7.69L3.62 10.26C4.09 10.61 4.28 11.22 4.11 11.78L2.87 15.82C2.48 17.12 3.98 18.17 5.06 17.34L8.14 14.98C8.65 14.59 9.34 14.59 9.85 14.98L12.91 17.32C13.99 18.15 15.5 17.1 15.1 15.8L13.85 11.75C13.67 11.18 13.87 10.57 14.34 10.22L17.67 7.7C18.74 6.89 18.17 5.18 16.82 5.18ZM11.11 6.17Q11.8 6.68 12.87 6.68L16.53 6.68L13.43 9.02Q12.62 9.63 12.37 10.43Q12.11 11.22 12.41 12.19L13.57 15.94L10.76 13.79Q9.88 13.11 9 13.11Q8.11 13.11 7.23 13.79L4.4 15.96L5.54 12.22Q5.84 11.26 5.59 10.47Q5.33 9.68 4.54 9.07L1.42 6.68L5.12 6.68Q6.19 6.68 6.88 6.17Q7.58 5.66 7.89 4.64L9 1.07L10.1 4.64Q10.41 5.66 11.11 6.17Z" fill="#FAFAFA" fill-opacity="1.000000" fill-rule="evenodd"/>
</svg>
